<?xml version="1.0" encoding="utf-8"?>
<!-- Generator: Adobe Illustrator 19.0.0, SVG Export Plug-In . SVG Version: 6.00 Build 0)  -->
<svg version="1.1" xmlns="http://www.w3.org/2000/svg" xmlns:xlink="http://www.w3.org/1999/xlink" x="0px" y="0px" width="512px"
	 height="512px" viewBox="0 0 512 512" enable-background="new 0 0 512 512" xml:space="preserve">
<g id="Layer_1">
</g>
<g id="Layer_2">
	<g id="XMLID_4_">
		<path id="XMLID_8_" fill="#666666" d="M464.2,221.5h-22.5v-174c0-26.2-21.3-47.5-47.5-47.5H47.5C21.3,0,0,21.3,0,47.5V321
			c0,26.2,21.3,47.5,47.5,47.5h33.6l1.2,108.9l97.6-108.9h66.5v27.8c0,26.2,21.3,47.5,47.5,47.5h108.3l74.9,68.6l-11.5-68.7
			c25.6-0.7,46.1-21.7,46.1-47.5V269C511.7,242.8,490.4,221.5,464.2,221.5z M173.2,353.5l-76.3,85.1l-1-85.1H47.5
			C29.6,353.5,15,338.9,15,321V47.5C15,29.6,29.6,15,47.5,15h346.8c17.9,0,32.5,14.6,32.5,32.5V321c0,17.9-14.6,32.5-32.5,32.5
			H173.2z M496.7,396.3c0,17.9-14.6,32.5-32.5,32.5h-16.4l7.2,43.1L408,428.8H293.9c-17.9,0-32.5-14.6-32.5-32.5v-27.8h132.9
			c26.2,0,47.5-21.3,47.5-47.5v-84.6h22.5c17.9,0,32.5,14.6,32.5,32.5V396.3z"/>
		<path id="XMLID_1_" fill="#666666" d="M360.7,209.8c0,4.1-3.4,7.5-7.5,7.5H88.6c-4.1,0-7.5-3.4-7.5-7.5s3.4-7.5,7.5-7.5h264.6
			C357.3,202.3,360.7,205.6,360.7,209.8z M353.2,257.9H88.6c-4.1,0-7.5,3.4-7.5,7.5s3.4,7.5,7.5,7.5h264.6c4.1,0,7.5-3.4,7.5-7.5
			S357.3,257.9,353.2,257.9z M353.2,146.6H88.6c-4.1,0-7.5,3.4-7.5,7.5s3.4,7.5,7.5,7.5h264.6c4.1,0,7.5-3.4,7.5-7.5
			S357.3,146.6,353.2,146.6z M353.2,90.9H88.6c-4.1,0-7.5,3.4-7.5,7.5s3.4,7.5,7.5,7.5h264.6c4.1,0,7.5-3.4,7.5-7.5
			S357.3,90.9,353.2,90.9z"/>
	</g>
</g>
</svg>
