<?xml version="1.0" encoding="utf-8"?>
<!-- Generator: Adobe Illustrator 19.0.0, SVG Export Plug-In . SVG Version: 6.00 Build 0)  -->
<svg version="1.1" id="Layer_1" xmlns="http://www.w3.org/2000/svg" xmlns:xlink="http://www.w3.org/1999/xlink" x="0px" y="0px"
	 width="512px" height="512px" viewBox="0 0 512 512" enable-background="new 0 0 512 512" xml:space="preserve">
<g id="XMLID_1_">
	<path id="XMLID_22_" fill="#666766" d="M465.1,35.7h-40.6v15h40.6c17.9,0,32.5,14.6,32.5,32.5v381.2c0,17.9-14.6,32.5-32.5,32.5
		H47.3c-17.9,0-32.5-14.6-32.5-32.5V83.2c0-17.9,14.6-32.5,32.5-32.5h41.2v-15H47.3C21.1,35.7-0.2,57-0.2,83.2v381.2
		c0,26.2,21.3,47.5,47.5,47.5h417.8c26.2,0,47.5-21.3,47.5-47.5V83.2C512.6,57,491.3,35.7,465.1,35.7z"/>
	<path id="XMLID_27_" fill="#666766" d="M108.8,86c4.1,0,7.5-3.4,7.5-7.5v-71c0-4.1-3.4-7.5-7.5-7.5s-7.5,3.4-7.5,7.5v71
		C101.3,82.6,104.7,86,108.8,86z"/>
	<path id="XMLID_28_" fill="#666766" d="M257.1,86L257.1,86c4.1,0,7.5-3.4,7.5-7.5v-71c0-4.1-3.4-7.5-7.5-7.5h0
		c-4.1,0-7.5,3.4-7.5,7.5v71C249.6,82.6,253,86,257.1,86z"/>
	<path id="XMLID_29_" fill="#666766" d="M405.3,86c4.1,0,7.5-3.4,7.5-7.5v-71c0-4.1-3.4-7.5-7.5-7.5s-7.5,3.4-7.5,7.5v71
		C397.8,82.6,401.2,86,405.3,86z"/>
	<rect id="XMLID_30_" x="369.1" y="135" fill="#666766" width="72.5" height="72.5"/>
	<rect id="XMLID_31_" x="369.1" y="375" fill="#666766" width="72.5" height="72.5"/>
	<rect id="XMLID_32_" x="220.8" y="255" fill="#666766" width="72.5" height="72.5"/>
	<rect id="XMLID_33_" x="369.1" y="255" fill="#666766" width="72.5" height="72.5"/>
	<rect id="XMLID_34_" x="72.6" y="375" fill="#666766" width="72.5" height="72.5"/>
	<rect id="XMLID_35_" x="72.6" y="135" fill="#666766" width="72.5" height="72.5"/>
	<rect id="XMLID_36_" x="220.8" y="375" fill="#666766" width="72.5" height="72.5"/>
	<rect id="XMLID_37_" x="72.6" y="255" fill="#666766" width="72.5" height="72.5"/>
	<rect id="XMLID_38_" x="220.8" y="135" fill="#666766" width="72.5" height="72.5"/>
	<rect id="XMLID_39_" x="128" y="35.7" fill="#666766" width="109" height="15"/>
	<rect id="XMLID_40_" x="277" y="35.7" fill="#666766" width="109" height="15"/>
</g>
</svg>
