<?xml version="1.0" encoding="utf-8"?>
<!-- Generator: Adobe Illustrator 19.0.0, SVG Export Plug-In . SVG Version: 6.00 Build 0)  -->
<svg version="1.1" id="Layer_1" xmlns="http://www.w3.org/2000/svg" xmlns:xlink="http://www.w3.org/1999/xlink" x="0px" y="0px"
	 width="512px" height="512px" viewBox="0 0 512 512" enable-background="new 0 0 512 512" xml:space="preserve">
<g id="XMLID_1_">
	<path id="XMLID_13_" fill="#666766" d="M413.1,64.9L345.7,0.5h-10.5h-10.5H201.2H77.5c-13.1,0-25,5.3-33.6,13.9S30,34.9,30,48
		v208.3v208.3c0,13.1,5.3,25,13.9,33.6S64.4,512,77.5,512h177.7h177.7c13.1,0,25-5.3,33.6-13.9s13.9-20.5,13.9-33.6V296.9V129.4
		L413.1,64.9z M465.4,308v156.5c0,9-3.6,17.1-9.5,23s-14,9.5-23,9.5H255.2H77.5c-9,0-17.1-3.6-23-9.5s-9.5-14-9.5-23V256.2V48
		c0-9,3.6-17.1,9.5-23s14-9.5,23-9.5h123.6h123.6v68v68h70.3h70.3V308z M465.4,136.2v0.2h-62.8h-62.8V76V15.6l62.8,60.2l62.8,60.2
		V136.2z"/>
	<rect id="XMLID_15_" x="119.2" y="103.8" fill="#666766" width="172.5" height="15"/>
	<rect id="XMLID_16_" x="119.2" y="393.7" fill="#666766" width="272" height="15"/>
	<rect id="XMLID_17_" x="119.2" y="200.4" fill="#666766" width="272" height="15"/>
	<rect id="XMLID_18_" x="119.2" y="297.1" fill="#666766" width="272" height="15"/>
</g>
</svg>
