<?xml version="1.0" encoding="utf-8"?>
<!-- Generator: Adobe Illustrator 19.0.0, SVG Export Plug-In . SVG Version: 6.00 Build 0)  -->
<svg version="1.1" id="Layer_1" xmlns="http://www.w3.org/2000/svg" xmlns:xlink="http://www.w3.org/1999/xlink" x="0px" y="0px"
	 width="512px" height="512px" viewBox="0 0 512 512" enable-background="new 0 0 512 512" xml:space="preserve">
<g id="XMLID_19_">
	<path id="XMLID_20_" fill="#D2D2D2" d="M150.5,147.3h95.1v98.2H139.6C140.3,210.5,144.1,177.3,150.5,147.3L150.5,147.3z
		 M150.5,364.7h95.1v-98.2H139.6C140.3,301.5,144.1,334.6,150.5,364.7L150.5,364.7z M245.5,126.2V0C207,7.6,174,56.4,155.4,126.2
		H245.5z M383.4,364.7h104.9c14-30.1,22.3-63.2,23.7-98.2H393.3C392.8,301.6,389.4,334.6,383.4,364.7L383.4,364.7z M383.4,147.3
		c6,30.1,9.3,63.1,10,98.2H512c-1.4-35-9.7-68.2-23.7-98.2H383.4z M378.7,126.2h98.6C443,67.7,386.4,24.1,319.1,7
		C345,32.7,365.7,74.2,378.7,126.2L378.7,126.2z M245.5,512V385.7h-90.1C174,455.6,207,504.4,245.5,512L245.5,512z M356.6,126.2
		C338,56.4,305,7.6,266.5,0v126.2H356.6z M372.4,266.5H266.5v98.2h95.1C368,334.6,371.7,301.5,372.4,266.5L372.4,266.5z M0,266.5
		c1.4,35,9.7,68.1,23.8,98.2h104.8c-6-30.1-9.3-63.1-9.9-98.2H0z M133.4,385.7H34.8C69,444.3,125.6,487.9,193,505
		C167.1,479.3,146.3,437.7,133.4,385.7L133.4,385.7z M378.7,385.7c-13,52-33.7,93.5-59.6,119.3c67.3-17.1,123.9-60.7,158.2-119.3
		H378.7z M133.4,126.2c13-52,33.7-93.5,59.5-119.2C125.6,24.1,69,67.7,34.8,126.2H133.4z M361.6,147.3h-95.1v98.2h105.9
		C371.7,210.5,368,177.3,361.6,147.3L361.6,147.3z M23.8,147.3c-14,30-22.4,63.2-23.8,98.2h118.7c0.6-35.1,3.9-68.1,9.9-98.2H23.8z
		 M266.5,385.7V512c38.5-7.6,71.5-56.4,90.1-126.3H266.5z M266.5,385.7"/>
</g>
</svg>
