<?xml version="1.0" encoding="utf-8"?>
<!-- Generator: Adobe Illustrator 19.0.0, SVG Export Plug-In . SVG Version: 6.00 Build 0)  -->
<svg version="1.1" id="Layer_1" xmlns="http://www.w3.org/2000/svg" xmlns:xlink="http://www.w3.org/1999/xlink" x="0px" y="0px"
	 width="512px" height="512px" viewBox="0 0 512 512" enable-background="new 0 0 512 512" xml:space="preserve">
<path id="XMLID_13_" fill="#666766" d="M512.7,0H0v15h65.1c-0.6,21.2-0.3,77.9,17.1,129.1c11.3,33.4,41.7,62.9,56.6,84.4
	c7.3,10.6,16.4,23.8,16.7,27.5c-0.2,4.5-11.3,22.3-20.2,36.5c-16.1,25.9-48.2,61.3-59.8,95.5c-16,47-13.3,90.9-11.1,109.3H0v15
	h512.7v-15h-66.8c2.2-18.4,4.8-62.3-11.1-109.3c-11.6-34.2-43.7-69.6-59.8-95.5c-8.9-14.3-20-32-20.2-36.5
	c0.2-3.7,9.3-16.9,16.7-27.5c14.9-21.5,45.3-51,56.6-84.4C445.3,92.9,445.6,36.2,445,15h67.7V0z M413.7,139.3
	c-10.6,31.4-40.4,59.9-54.7,80.7c-13,18.9-19.3,28.3-19.3,36c0,8.1,7.3,20.1,22.5,44.5c15.7,25.2,47.3,59.8,58.4,92.4
	c15.4,45.4,12.2,88.8,10.2,104.4H79.5c-2-15.7-5.2-59,10.2-104.4c11.1-32.6,42.6-67.1,58.4-92.4c15.2-24.3,22.5-36.4,22.5-44.5
	c0-7.7-6.3-17.2-19.3-36c-14.4-20.8-44.1-49.3-54.7-80.7C79.9,90.5,79.7,34.8,80.2,15H430C430.5,34.8,430.2,90.5,413.7,139.3z"/>
</svg>
