<?xml version="1.0" encoding="utf-8"?>
<!-- Generator: Adobe Illustrator 19.0.0, SVG Export Plug-In . SVG Version: 6.00 Build 0)  -->
<svg version="1.1" xmlns="http://www.w3.org/2000/svg" xmlns:xlink="http://www.w3.org/1999/xlink" x="0px" y="0px" width="512px"
	 height="512px" viewBox="0 0 512 512" enable-background="new 0 0 512 512" xml:space="preserve">
<g id="Layer_1">
</g>
<g id="Layer_2">
	<g id="XMLID_3_">
		<path id="XMLID_11_" fill="#666766" d="M416.3,332.1c-11.6-17.9-28.4-30.2-56.3-41.2l-0.1,0c-11.4-4.5-24.3-9.6-38.6-16.9
			c9.2-11.4,13.7-25.7,17.2-38.5c3.3-4.2,5.4-9.3,6.1-14.9l0.1-0.3c1.1-2.6,1.9-5.1,2.6-7.8l0.6-1.9c4.6-14.3,7.6-29-0.8-40.1
			c2.9-26,0.4-38.8-1.4-44.3l-0.1-0.5c-7-25.4-30.7-39.3-49.4-46.5c-20.4-7.9-45-11.4-62.6-9c-15.4,2-26.3,7.8-32.5,17.2
			c-17.7,7.8-29.3,20.8-34.3,38.6c-4.5,15.9-3,33.4-1.3,45.6c-9.4,13.1-4.6,28.7-2,37.2c0.4,1.4,0.7,2.1,0.8,2.9
			c0.6,2.6,1.6,5.3,2.7,7.9l0.1,0.3c0.6,6.3,3,12,6.8,16.4c3.1,12.5,6.8,26.5,15.6,38.3c-14.3,7.1-27,11.8-38.3,16
			c-27.6,10.2-44.2,22.2-55.6,40.1c-12.8,20.1-18.9,48.4-18.9,88.9l0,22.5h359l0-22.5C435.4,380,429.3,352.2,416.3,332.1z
			 M91.5,427.1l0-7.5c0.1-76.9,21.9-99,64.8-114.9c12.6-4.7,26.8-9.9,43.3-18.4l13.5-7l-10-11.5c-8.5-9.9-12-23.6-15-35.7l-0.7-3
			l-2-2.2c-2-2.2-3.3-5.3-3.5-8.8l-0.1-0.7l-0.7-2.8l-0.3-0.6c-0.9-2-1.6-4-2.1-5.9c-0.3-1.2-0.6-2.3-1.1-3.7
			c-2.1-6.9-5.4-17.4,0.3-24.6l3.1-4l-0.7-5.1c-3.9-27.1-3.8-56.5,27.3-69.8l3.5-1.5l2-3.2c3.7-5.9,11.2-9.6,22.3-11.1
			c28.4-3.9,86.2,10.1,95.6,44.7l0.3,1.1c0.9,2.7,3.6,13.4,0.6,39.1l-0.6,5.1l3.3,4c3.9,4.7,3.6,12.3-1.1,27.1l-0.7,2.2l-0.1,0.3
			c-0.5,2.1-1.2,4.2-2.1,6.2l-0.2,0.5l-0.7,2.4l-0.1,0.6c-0.3,3.1-1.4,5.9-3.2,8.1l-1.6,2l-0.7,2.5c-3.3,12.3-7.5,26.2-16.2,35.5
			l-3.2,3.7v12.1l6.4,3.4c16.3,8.6,30.6,14.2,43.2,19.1l0.1,0c43.7,17.2,65.9,39.6,66,114.8l0,7.5H91.5z"/>
		<path id="XMLID_12_" fill="#666766" d="M449,407.1h62.5l0-18c-0.1-50.7-12.8-56.2-39.4-62.9c-1.7-0.4-3.4-0.9-5.2-1.3
			c-4.8-1.3-9.7-2.5-15.2-4.6c-5.1-1.9-13.4-5.2-19.8-7.9l0.2-7.1c4.9,0.3,10.1,0.5,12.9,0.4c9.7-0.3,20.6-1.4,27.3-11.1
			c5.7-8.4,3.2-15.2,0.1-23.9c-1.1-2.9-2.3-6.2-3.6-10.4c-1.4-4.5-2.5-9.2-3.9-15.1c-1.1-4.6-2.4-9.9-4-16.4l-0.3-1.2
			c-12.1-57.2-43.3-89.7-88-91.4c-4.1-0.2-8.2,0-12.2,0.3l1.5,14.9c3.3-0.3,6.8-0.4,10.2-0.3c26.3,1,60.4,15.6,73.9,79.5l0.4,1.7
			c1.7,6.4,2.9,11.6,4,16.2c1.5,6.2,2.7,11.1,4.2,16c1.4,4.5,2.7,8.2,3.8,11.1c3,8.3,2.8,8.5,1.6,10.3c-2.2,3.2-5.9,4.3-15.3,4.6
			c-5,0.1-15-0.4-18-1.1l-8.9-2.1l-1.1,34.8l4.8,2c6.5,2.7,18.4,7.6,25.1,10.1c6.1,2.3,11.7,3.7,16.6,5c1.8,0.5,3.6,0.9,5.3,1.4
			c11.5,2.9,17.7,4.7,21.5,9.6c4.6,6,6.6,18,6.6,38.8l0,2.9H449V407.1z"/>
		<path id="XMLID_13_" fill="#666766" d="M21.2,350.3c3.8-5,9.9-6.7,21.5-9.6c1.7-0.4,3.5-0.9,5.3-1.4c4.9-1.3,10.5-2.7,16.6-5
			c6.7-2.5,18.6-7.4,25.1-10.1l4.8-2l-1.1-34.8l-8.9,2.1c-3,0.7-13,1.2-18,1.1c-9.4-0.3-13.1-1.4-15.3-4.6c-1.2-1.8-1.4-2,1.6-10.3
			c1.1-2.9,2.4-6.6,3.8-11.1c1.5-4.9,2.7-9.8,4.2-16c1.1-4.6,2.3-9.8,4-16.2l0.4-1.8c13.5-63.9,47.6-78.5,73.9-79.5
			c3.4-0.1,6.9,0,10.2,0.3l1.5-14.9c-4-0.4-8.1-0.5-12.2-0.3c-44.7,1.7-75.9,34.1-88,91.3l-0.3,1.3c-1.7,6.5-2.9,11.7-4,16.3
			c-1.4,5.9-2.5,10.6-3.9,15.1c-1.3,4.2-2.5,7.5-3.6,10.4c-3.2,8.7-5.6,15.5,0.1,23.9c6.6,9.8,17.5,10.9,27.3,11.1
			c2.8,0.1,8,0,12.9-0.4l0.2,7.1c-6.4,2.6-14.7,6-19.8,7.9c-5.4,2-10.4,3.3-15.2,4.6c-1.8,0.5-3.5,0.9-5.2,1.3
			c-26.6,6.7-39.4,12.2-39.4,62.9l0,18h62.5v-15H14.6l0-3C14.6,368.3,16.6,356.4,21.2,350.3z"/>
	</g>
</g>
</svg>
