<?xml version="1.0" encoding="utf-8"?>
<!-- Generator: Adobe Illustrator 19.0.0, SVG Export Plug-In . SVG Version: 6.00 Build 0)  -->
<svg version="1.1" id="Layer_1" xmlns="http://www.w3.org/2000/svg" xmlns:xlink="http://www.w3.org/1999/xlink" x="0px" y="0px"
	 width="512px" height="512px" viewBox="0 0 512 512" enable-background="new 0 0 512 512" xml:space="preserve">
<path id="XMLID_9_" fill="#C6C6C5" d="M438.6,200.4h-25.3V88.2c0-48.6-39.6-88.2-88.2-88.2H173.4c-48.6,0-88.2,39.6-88.2,88.2v112.2
	H60c-20,0-36.2,16.2-36.2,36.2v239.2c0,20,16.2,36.2,36.2,36.2h378.7c20,0,36.2-16.2,36.2-36.2V236.6
	C474.8,216.6,458.6,200.4,438.6,200.4z M119.2,88.2c0-29.9,24.3-54.2,54.2-54.2h151.7c29.9,0,54.2,24.3,54.2,54.2v112.2H119.2V88.2z
	 M262.9,313.7l0.1,45.1c0,13.5-27,13.8-27.2-0.3v-44.8c-8.1-4.6-13.7-13.1-13.7-22.9c0-15.1,12.2-27.1,27.1-27.1
	c15.1,0,27.2,12.1,27.2,27.1C276.4,300.6,270.8,309.1,262.9,313.7z"/>
</svg>
