<?xml version="1.0" encoding="utf-8"?>
<!-- Generator: Adobe Illustrator 19.0.0, SVG Export Plug-In . SVG Version: 6.00 Build 0)  -->
<svg version="1.1" id="Layer_1" xmlns="http://www.w3.org/2000/svg" xmlns:xlink="http://www.w3.org/1999/xlink" x="0px" y="0px"
	 width="512px" height="512px" viewBox="0 0 512 512" enable-background="new 0 0 512 512" xml:space="preserve">
<g id="XMLID_1_">
	<path id="XMLID_10_" fill="#666766" d="M137.5,189.9c1.3,5,3,9.1,4.4,12.3c0.2,0.5,0.4,0.9,0.6,1.4v0c0,9.4,3.3,14.6,7.3,17.1
		c17.1,59.3,64.3,106.8,106.8,106.8c40.6,0,87.9-48.7,104.6-107.2c3.5-2.6,6.2-7.7,6.5-15.5c2.1-4,3.6-8.5,5.6-14.4l0.2-0.7
		c0.3-1.2,0.8-2.8,1.4-4.6c4-12.8,10.1-32.2-1.2-40.4l-0.5-0.4c-1-0.6-2-1.1-3-1.5c2.7-18.7,6.7-55.3,0.2-74.5
		c-6.6-22.9-28.9-42.5-62.6-55.4C279.5,2.2,246.9-2.3,222.5,1.1c-23.9,3.4-31.7,13.2-33.9,21.3c-28.6,9.4-45.5,28.4-50.4,56.7
		c-3.6,21.1-0.2,44.1,3.8,65.4c-1.9,0.6-4,1.7-6.1,3.6l-0.6,0.6c-9,9.9-3,26.7,1,37.8C136.8,187.7,137.2,188.8,137.5,189.9z
		 M158.8,152.1c-4.5-22.7-9.5-48.5-5.8-70.5c4.1-24.3,18.2-38.9,44.3-46.2l5.5-1.5v-5.7c0-8.5,16.6-11.5,21.8-12.2
		c43.7-6.1,120,16.8,131.4,56.6l0.1,0.4c6.3,18.3,0.3,62.9-2.6,78.6c0,0,14.8,2.7,11.1,13.7c-1.7,5-2.7,10.8-4.1,15.3
		c-0.6,1.9-1.1,3.6-1.5,5l0,0.1c-2.1,6.2-3.5,10.3-5.3,13.3l-1.1,1.8v2.8c0,1.7-0.2,3-0.4,3.9h-3.2l-1.5,5.6
		c-6.8,26-21.1,51.8-39.1,70.8c-17.2,18.2-36.1,28.7-51.9,28.7c-36.4,0-79.1-45.6-93.3-99.5l-1.5-5.6h-3.9c-0.2-0.8-0.4-2.1-0.4-3.9
		v-3l-0.5-1.3c-0.4-1-0.8-1.9-1.3-3c-1.3-3-2.7-6.4-3.7-10.4l-0.2-0.6c-0.4-1.2-0.9-2.5-1.4-3.9c-0.5-1.4-1.4-3.7-2.1-6.3
		C142.3,154,158.8,152.1,158.8,152.1z"/>
	<path id="XMLID_13_" fill="#666766" d="M485.7,389.6c-17.4-22.5-43-32.7-75.5-45.7c-23.2-9.3-49.5-19.8-80.1-37.2l-4.8-2.7l-4,3.8
		c-21.3,19.9-43,30-64.4,30c-28.9,0-51.8-16.3-65.8-29.9l-4-3.9l-4.9,2.8c-31.7,17.9-58.7,28.1-82.5,37c-32,12-57.2,21.5-74.3,43.9
		C7.6,410.9,0,445.9,0,504.7v7.5h511.5v-7.5C511.5,447.4,503.8,413,485.7,389.6z M15.1,497.2c0.6-50.1,7.5-81.2,22.1-100.4
		c14.5-19,36.8-27.4,67.7-39c22-8.3,49.1-18.4,79.8-35.3c22,19.9,46.9,30.3,72.2,30.3c23.9,0,47.6-10.2,70.5-30.4
		c29.5,16.3,54.7,26.5,77.2,35.4c61.6,24.6,90.5,36.2,91.8,139.3H15.1z"/>
</g>
</svg>
