<?xml version="1.0" encoding="utf-8"?>
<!-- Generator: Adobe Illustrator 19.0.0, SVG Export Plug-In . SVG Version: 6.00 Build 0)  -->
<svg version="1.1" xmlns="http://www.w3.org/2000/svg" xmlns:xlink="http://www.w3.org/1999/xlink" x="0px" y="0px" width="512px"
	 height="512px" viewBox="0 0 512 512" enable-background="new 0 0 512 512" xml:space="preserve">
<g id="Layer_1">
</g>
<g id="Layer_2">
	<g id="XMLID_5_">
		<rect id="XMLID_6_" x="152.3" y="156.5" fill="#7A7A7A" stroke="#666766" stroke-miterlimit="10" width="208.7" height="15"/>
		<rect id="XMLID_7_" x="152.3" y="88.5" fill="#7A7A7A" stroke="#666766" stroke-miterlimit="10" width="208.7" height="15"/>
		<rect id="XMLID_8_" x="152.3" y="220.5" fill="#7A7A7A" stroke="#666766" stroke-miterlimit="10" width="208.7" height="15"/>
		<path id="XMLID_11_" fill="#7A7A7A" stroke="#666766" stroke-miterlimit="10" d="M511.8,206.2v-0.5l-0.3,0.2l-105.7-80V-0.5H105.5
			v126.6L0.4,205.6l-0.3-0.2v0.5l-0.6,0.5l0.6,0.9v304.7h511.7V207.6l0.7-0.9L511.8,206.2z M120.5,14.5h270.3v272l-139.5,93.2
			l-130.8-90.8V14.5z M105.5,145v133.5l-92.1-63.9L105.5,145z M496.8,496.9H15.1V234.1l236,163.7l245.7-164V496.9z M405.8,276.5
			V144.4l92.5,70.3L405.8,276.5z"/>
	</g>
</g>
</svg>
