<?xml version="1.0" encoding="utf-8"?>
<!-- Generator: Adobe Illustrator 19.0.0, SVG Export Plug-In . SVG Version: 6.00 Build 0)  -->
<svg version="1.1" id="Layer_1" xmlns="http://www.w3.org/2000/svg" xmlns:xlink="http://www.w3.org/1999/xlink" x="0px" y="0px"
	 width="512px" height="512px" viewBox="0 0 512 512" enable-background="new 0 0 512 512" xml:space="preserve">
<g id="XMLID_5_">
	<path id="XMLID_1_" fill="#676867" d="M130.9,64c6.6,0,12-5.4,12-12V11c0-6.6-5.4-12-12-12s-12,5.4-12,12v41
		C118.9,58.6,124.3,64,130.9,64z M380.9,64c6.6,0,12-5.4,12-12V11c0-6.6-5.4-12-12-12s-12,5.4-12,12v41
		C368.9,58.6,374.3,64,380.9,64z"/>
	<path id="XMLID_7_" fill="#676867" d="M464.5,44.3h-68v6c0,8.6-7,15.7-15.7,15.7s-15.7-7-15.7-15.7v-6H146.6v6
		c0,8.6-7,15.7-15.7,15.7s-15.7-7-15.7-15.7v-6H48c-26.2,0-47.5,21.3-47.5,47.5v371.7C0.5,489.7,21.8,511,48,511h416.5
		c26.2,0,47.5-21.3,47.5-47.5V91.8C512,65.6,490.7,44.3,464.5,44.3z M497.1,463.5c-0.1,17.9-14.6,32.5-32.6,32.5L48,496
		c-17.9,0-32.5-14.6-32.5-32.5V158.6H497L497.1,463.5z"/>
	<path id="XMLID_6_" fill="#676867" d="M210.6,415.1l-70.2-70.2l24.6-24.6l45.6,45.6l134.9-134.9l24.6,24.6L210.6,415.1z"/>
</g>
</svg>
