<?xml version="1.0" encoding="utf-8"?>
<!-- Generator: Adobe Illustrator 19.0.0, SVG Export Plug-In . SVG Version: 6.00 Build 0)  -->
<svg version="1.1" id="Layer_1" xmlns="http://www.w3.org/2000/svg" xmlns:xlink="http://www.w3.org/1999/xlink" x="0px" y="0px"
	 width="512px" height="512px" viewBox="0 0 512 512" enable-background="new 0 0 512 512" xml:space="preserve">
<g id="XMLID_1_">
	<path id="XMLID_10_" fill="#C6C6C5" d="M138,189.9c1.3,5,3,9.1,4.4,12.3c0.2,0.5,0.4,0.9,0.6,1.4l0,0c0,9.4,3.3,14.6,7.3,17.1
		c17.1,59.3,64.3,106.8,106.8,106.8c40.6,0,87.9-48.7,104.6-107.2c3.5-2.6,6.2-7.7,6.5-15.5c2.1-4,3.6-8.5,5.6-14.4l0.2-0.7
		c0.3-1.2,0.8-2.8,1.4-4.6c4-12.8,10.1-32.2-1.2-40.4l-0.5-0.4c-1-0.6-2-1.1-3-1.5c2.7-18.7,6.7-55.3,0.2-74.5
		c-6.6-22.9-28.9-42.5-62.6-55.4C280,2.2,247.4-2.3,223,1.1c-23.9,3.4-31.7,13.2-33.9,21.3c-28.6,9.4-45.5,28.4-50.4,56.7
		c-3.6,21.1-0.2,44.1,3.8,65.4c-1.9,0.6-4,1.7-6.1,3.6l-0.6,0.6c-9,9.9-3,26.7,1,37.8C137.3,187.7,137.7,188.8,138,189.9z"/>
	<path id="XMLID_13_" fill="#C6C6C5" d="M486.1,389.8c-17.4-22.5-43.1-32.8-75.6-45.8c-23.2-9.3-49.6-19.8-80.3-37.3l-4.8-2.7
		l-4,3.8c-21.3,19.9-43.1,30.1-64.5,30.1c-29,0-51.9-16.3-65.9-30l-4-3.9l-4.9,2.8c-31.8,17.9-58.8,28.2-82.7,37.1
		c-32.1,12-57.3,21.5-74.4,44C7.1,411.1,0,453.1,0,512h512C512,454.6,504.3,413.2,486.1,389.8z"/>
</g>
</svg>
