<?xml version="1.0" encoding="utf-8"?>
<!-- Generator: Adobe Illustrator 19.0.0, SVG Export Plug-In . SVG Version: 6.00 Build 0)  -->
<svg version="1.1" id="Layer_1" xmlns="http://www.w3.org/2000/svg" xmlns:xlink="http://www.w3.org/1999/xlink" x="0px" y="0px"
	 width="512px" height="512px" viewBox="0 0 512 512" enable-background="new 0 0 512 512" xml:space="preserve">
<g id="XMLID_3_">
	<path id="XMLID_5_" fill="#FFFFFF" d="M15.2,464.5v-417C15.2,29.6,29.8,15,47.7,15h305.9c17.9,0,32.5,14.6,32.5,32.5v144.6h15V47.5
		c0-26.2-21.3-47.5-47.5-47.5H47.7C21.5,0,0.2,21.3,0.2,47.5v417c0,26.2,21.3,47.5,47.5,47.5h140.9v-15H47.7
		C29.8,497,15.2,482.4,15.2,464.5z"/>
	<path id="XMLID_14_" fill="#FFFFFF" d="M496,426.4c-10.9-14.3-26.4-21.2-47.1-29.3c-10.7-4.2-22.6-8.9-36-15.9V381
		c8.6-9.4,12.7-21.7,16.2-34.7c2.8-3.4,4.5-7.8,5-12.4c1-2.3,1.8-4.7,2.5-7.3l0.3-1c2.7-8.3,7.4-23.1-0.9-33.1
		c1.4-12.5,2.1-28.1-1.2-38.7c-4.5-16-18.2-29.8-37.5-37.9c-18.1-7.6-38.9-9.4-56.9-5c-11.7,2.9-20.5,5-25.2,11.7
		c-35.8,15.4-32.4,52.8-29.7,70.8c-8.1,10.4-4.1,23.4-1.9,30.4l0.1,0.3c0.3,0.8,0.5,1.6,0.6,2.1c0.6,2.5,1.5,4.9,2.5,7.1
		c0.4,5.2,2.4,10,5.6,13.6c2.9,11.6,6.3,24.6,14.9,34.7c-13.3,6.8-25.1,11.2-35.7,15.1c-19.8,7.3-35.8,14.1-46.6,28.4
		c-11,14.6-15.6,35.6-15.6,70v16.5H512v-16.5C511.9,461.7,507.1,441.1,496,426.4z M496.9,496.8H224.3v-1.5
		c0-62.5,15.1-70.5,52.4-84.4c12.4-4.6,26.4-9.8,42.7-18.7l3.9-2.1v-13.4l-2.4-2.2c-8.2-7.7-11.2-19.3-14.2-31.5l-1-3.9l-1.8-1.5
		c-1.5-1.3-2.4-3.5-2.4-6.1v-1.8l-0.8-1.6c-0.8-1.6-1.5-3.4-2-5.4c-0.2-0.9-0.5-1.9-0.8-2.9l-0.1-0.3c-2-6.6-3.6-12.9-0.6-16.8
		l0.5-0.6c0.1,0,0.1-0.1,0.2-0.1l3.6-2.7l-0.7-4.5c-4-24.8-4.1-49.1,22.1-59.2l2.9-1.1l1.3-2.8c0.9-2,6.4-3.7,16.8-6.2
		c31.8-7.8,69.7,8.3,76.5,32.5l0.1,0.3c2.2,6.9,2.3,20,0.2,36l-0.6,4.3l3.4,2.6c4.4,3.3,0.9,14-0.9,19.8l-0.4,1.3l-0.2,0.6
		c-0.5,2.1-1.2,4-2,5.8l-0.7,1.4l-0.1,1.5c-0.1,2.2-1,4.4-2.3,5.7l-1.4,1.4l-0.5,1.9c-3.3,12.5-6.9,24.4-14.8,31.6l-2.4,2.2v15.4
		l3.9,2.1c15.8,8.7,29.6,14.1,41.7,18.8c38.1,15,53.5,23.5,53.5,84.2L496.9,496.8L496.9,496.8z"/>
	<path id="XMLID_15_" fill="#FFFFFF" d="M246.1,257c0-4.1-3.4-7.5-7.5-7.5h-141c-4.1,0-7.5,3.4-7.5,7.5s3.4,7.5,7.5,7.5h141
		C242.8,264.5,246.1,261.1,246.1,257z"/>
	<path id="XMLID_16_" fill="#FFFFFF" d="M311.1,145.5c0-4.1-3.4-7.5-7.5-7.5h-206c-4.1,0-7.5,3.4-7.5,7.5s3.4,7.5,7.5,7.5h206
		C307.8,153,311.1,149.6,311.1,145.5z"/>
	<path id="XMLID_17_" fill="#FFFFFF" d="M97.6,361c-4.1,0-7.5,3.4-7.5,7.5s3.4,7.5,7.5,7.5h80c4.1,0,7.5-3.4,7.5-7.5
		s-3.4-7.5-7.5-7.5H97.6z"/>
</g>
</svg>
