<?xml version="1.0" encoding="utf-8"?>
<!-- Generator: Adobe Illustrator 19.0.0, SVG Export Plug-In . SVG Version: 6.00 Build 0)  -->
<svg version="1.1" id="Layer_1" xmlns="http://www.w3.org/2000/svg" xmlns:xlink="http://www.w3.org/1999/xlink" x="0px" y="0px"
	 width="512px" height="512px" viewBox="-343 58 512 512" style="enable-background:new -343 58 512 512;" xml:space="preserve">
<style type="text/css">
	.st0{fill:#FFFFFF;}
</style>
<g id="XMLID_1_">
	<path id="XMLID_6_" class="st0" d="M-114,333.2c21.9-18,34.4-44.3,34.4-72.7c0-51.8-42.2-94-94-94s-94,42.2-94,94
		c0,28.3,12.5,54.7,34.3,72.6c-27.5,10.5-52.2,28.3-71.1,51.4c-24.5,30-38,67.8-38,106.4c0,43.3,35.2,78.5,78.5,78.5h180.6
		c43.3,0,78.5-35.2,78.5-78.5c0-38.1-13.2-75.6-37.2-105.4C-61,362-86.1,343.9-114,333.2z M-83.4,554.5h-180.5
		c-35,0-63.5-28.5-63.5-63.5c0-35.1,12.3-69.5,34.6-96.9c22-27,52.7-45.9,86.3-53.3l-1.9-8.7c-26.5-12.8-44.8-40-44.8-71.4
		c0-43.8,35.5-79.3,79.3-79.3s79.3,35.5,79.3,79.3c0,30.1-16.8,56.3-41.5,69.7l-2.6,10.9c33.1,7.8,63.2,26.9,84.8,53.7
		C-32,422.2-20,456.3-20,491C-19.9,526-48.4,554.5-83.4,554.5z"/>
	<path id="XMLID_9_" class="st0" d="M136.4,250.1c-16.3-20.3-37.7-36-61.7-45.4c18.5-15.8,29.1-38.6,29.1-63.1c0-45.8-37.2-83-83-83
		s-83,37.2-83,83c0,24.4,10.6,47.3,29.1,63.1c-13.6,5.4-26.5,12.8-38,21.9l9.3,11.7c15.8-12.6,34.6-21.5,54.2-25.8l-2.1-9.4
		c-22.4-11.3-37.8-34.4-37.8-61.2c0-37.8,30.7-68.5,68.5-68.5s68.5,30.7,68.5,68.5c0,25.9-14.4,48.5-35.6,60.1l-2.6,11
		c28.7,6.8,54.8,23.3,73.5,46.5c18.9,23.6,29.4,53.1,29.4,83.2c0,30-24.4,54.5-54.5,54.5H-2v15H99.7c38.3,0,69.5-31.2,69.5-69.5
		C169.1,309.2,157.5,276.3,136.4,250.1z"/>
</g>
</svg>
