<?xml version="1.0" encoding="utf-8"?>
<!-- Generator: Adobe Illustrator 19.0.0, SVG Export Plug-In . SVG Version: 6.00 Build 0)  -->
<svg version="1.1" id="Layer_1" xmlns="http://www.w3.org/2000/svg" xmlns:xlink="http://www.w3.org/1999/xlink" x="0px" y="0px"
	 width="512px" height="512px" viewBox="0 0 512 512" enable-background="new 0 0 512 512" xml:space="preserve">
<g id="XMLID_5_">
	<rect id="XMLID_6_" x="363.5" y="313" fill="#FFFFFF" width="10" height="19"/>
	<rect id="XMLID_18_" x="363.5" y="463" fill="#FFFFFF" width="10" height="19"/>
	
		<rect id="XMLID_19_" x="289.5" y="391.5" transform="matrix(1.367185e-03 1 -1 1.367185e-03 695.0971 105.9514)" fill="#FFFFFF" width="10" height="19"/>
	<path id="XMLID_22_" fill="#FFFFFF" d="M464.1,45.3h-68v6c0,8.6-7,15.7-15.7,15.7s-15.7-7-15.7-15.7v-6H146.2v6
		c0,8.6-7,15.7-15.7,15.7s-15.7-7-15.7-15.7v-6H47.6c-26.2,0-47.5,21.3-47.5,47.5v371.7c0,26.2,21.3,47.5,47.5,47.5h416.5
		c26.2,0,47.5-21.3,47.5-47.5V92.8C511.6,66.6,490.3,45.3,464.1,45.3z M15.1,464.5V159.6h481.5v216.3L480.3,352
		c-2.6-3.9-8.4-3.8-11,0.1l-23.8,36.1c-2.9,4.4,0.2,10.3,5.5,10.3h15.5c-0.7,55.6-47.2,100.3-103.4,98.1
		c-51.6-2-93.5-43.9-95.5-95.5c-2.2-56.6,43.3-103.4,99.4-103.4c19.8,0,39,5.8,55.3,16.8c5.3,3.5,10.2,7.6,14.7,12
		c2.8,2.8,7.3,3,10.2,0.3c3.3-2.9,3.4-7.9,0.3-11c-5.2-5.1-10.9-9.8-16.9-13.9c-20-13.4-43.4-20.1-67.6-19.3
		c-62.3,2.1-111,52.9-110.5,115.2c0.3,42.6,24,79.7,58.8,99.2H47.6C29.7,497,15.1,482.4,15.1,464.5z M464.1,497h-41.4
		c34.7-19.4,58.3-56.3,58.8-98.7h15.2v66.2C496.6,482.4,482.1,497,464.1,497z"/>
	<path id="XMLID_24_" fill="#FFFFFF" d="M130.5,65c6.6,0,12-5.4,12-12V12c0-6.6-5.4-12-12-12s-12,5.4-12,12v41
		C118.5,59.6,123.9,65,130.5,65z"/>
	<path id="XMLID_25_" fill="#FFFFFF" d="M380.5,65c6.6,0,12-5.4,12-12V12c0-6.6-5.4-12-12-12s-12,5.4-12,12v41
		C368.5,59.6,373.9,65,380.5,65z"/>
</g>
</svg>
