<?xml version="1.0" encoding="utf-8"?>
<!-- Generator: Adobe Illustrator 19.0.0, SVG Export Plug-In . SVG Version: 6.00 Build 0)  -->
<svg version="1.1" id="Layer_1" xmlns="http://www.w3.org/2000/svg" xmlns:xlink="http://www.w3.org/1999/xlink" x="0px" y="0px"
	 width="512px" height="512px" viewBox="0 0 512 512" enable-background="new 0 0 512 512" xml:space="preserve">
<path fill="#FFFFFF" d="M194.9,513.3l-47.8-90.1c-11.8,10-23.1,18.5-37.3,6.3l-0.4-0.4l-1.6-1.6c-11.6-12.6-6.5-23.7,4-38.8
	L18.2,349l35.4-38.7l96.5,19.9c23.7-32.8,55.6-73.2,82.7-106.9L-0.7,157.7l48.3-52.3l286.7,8.4l0,0l2.3-2.3c0.3-0.3,0.5-0.6,0.9-1
	c0.8-1,1.9-2.3,3.5-3.4c24.2-26.7,50.2-51.7,73.2-70.4c29-23.7,51.5-36,67-36.8h0.4c12.2,0,19.2,5.3,22.3,8.5
	c2.7,2.8,8.9,9.2,9,21.2c1.9,43.2-79,132-95.2,149.4l-0.2,0.2c-0.9,0.9-1.8,2-2.9,3.2c-0.7,0.8-1.5,1.7-2.3,2.7l23.2,262.7
	l-48.1,51.9l-85-211.8c-34.2,32.9-71.4,68-99.5,91.2l27.5,95.6L194.9,513.3z M151.4,399.3l46.8,88.2l15.4-16.8l-27.9-97l3.9-3.1
	c30.2-24.5,72.8-64.9,110.4-101.3l8-7.7L392.3,472l27.5-29.7l-23.2-262.9l2.5-2.5c1.5-1.5,2.8-3,4-4.5c1.2-1.4,2.3-2.7,3.6-3.9
	c24.2-25.9,46.5-53.3,62.8-77.2c25.4-37.1,28.6-54.4,28.3-61.4v-0.4c0-5.6-2.3-8.4-4.8-11c-1.4-1.4-4.7-3.9-11.3-3.9
	c-23,1.4-76.5,43.7-130.3,103.1l-0.9,1l-0.9,0.4c-0.1,0.2-0.3,0.4-0.5,0.6c-0.5,0.6-1.1,1.3-1.9,2.1l-6.9,6.9L54,120.6l-27.1,29.3
	L258.7,215l-7.1,8.9c-29.4,36.5-66.4,83.1-92.1,119.1l-2.8,4L59,326.7l-15.4,16.7l91.3,38.8l-5.5,7.6c-15.2,21-14.9,22.8-10.7,27.4
	l1.1,1.1c4.2,3.6,5.5,3.7,19.3-8c1.1-0.9,2.2-1.8,3.3-2.8l2.1-1.8h0.4L151.4,399.3z"/>
</svg>
