<?xml version="1.0" encoding="utf-8"?>
<!-- Generator: Adobe Illustrator 19.0.0, SVG Export Plug-In . SVG Version: 6.00 Build 0)  -->
<svg version="1.1" id="Layer_1" xmlns="http://www.w3.org/2000/svg" xmlns:xlink="http://www.w3.org/1999/xlink" x="0px" y="0px"
	 width="512px" height="512px" viewBox="0 0 512 512" enable-background="new 0 0 512 512" xml:space="preserve">
<path id="XMLID_2_" fill="#FFFFFF" d="M511.2,406.9h-7.5c-11.8,0-23.5-6.7-33-18.7c-9.1-11.6-14.5-26.5-14.5-39.8V215.2
	c0-41.4-18.4-82.9-51.9-116.8c-26.7-27.2-61.3-47.6-97.2-57.7c-5.6-23.4-27.3-41-53.3-41c-26,0-47.8,17.7-53.3,41.2
	c-34.8,10.7-68.1,30.8-93.9,56.8C73.2,131.7,54.7,173,54.7,214.2v133.2c0,13.3-5.4,28.2-14.5,39.8c-9.5,12.1-21.2,18.7-33,18.7h-7.5
	v60.2h204.5c2.8,25.8,24.6,45.9,51.2,45.9s48.4-20.1,51.2-45.9h204.5V406.9z M496.2,451.1H14.7v-30.8c31.5-5.1,55-41.4,55-72.9
	V214.2c0-37.2,16.9-74.8,47.6-105.9c26.5-26.8,61.5-46.7,97.4-55.8h0c0-20.9,17.6-37.8,39.1-37.8s39.1,17,39.1,37.8c0,0,0,0,0,0.1
	c36.9,8.2,73.2,28.5,100.6,56.3c30.7,31.1,47.6,68.8,47.6,106.3v133.2c0,16.5,6.6,34.9,17.7,49c10.5,13.4,23.5,21.7,37.3,23.9V451.1
	z"/>
</svg>
