<?xml version="1.0" encoding="utf-8"?>
<!-- Generator: Adobe Illustrator 19.0.0, SVG Export Plug-In . SVG Version: 6.00 Build 0)  -->
<svg version="1.1" id="Layer_1" xmlns="http://www.w3.org/2000/svg" xmlns:xlink="http://www.w3.org/1999/xlink" x="0px" y="0px"
	 width="512px" height="512px" viewBox="0 0 512 512" enable-background="new 0 0 512 512" xml:space="preserve">
<g id="XMLID_3_">
	<path id="XMLID_10_" fill="#FFFFFF" d="M256-0.2C187.9-0.2,123.7,26.5,75.2,75S0,187.7,0,255.8s26.7,132.3,75.2,180.8
		s112.7,75.2,180.8,75.2s132.3-26.7,180.8-75.2S512,323.9,512,255.8C512,114.6,397.2-0.2,256-0.2z M426.2,426
		c-45.7,45.7-106.1,70.8-170.2,70.8S131.5,471.7,85.8,426C40.2,380.3,15,319.9,15,255.8S40.1,131.3,85.8,85.6S191.9,14.8,256,14.8
		c132.9,0,241,108.1,241,241C497,319.9,471.8,380.3,426.2,426z"/>
	<path id="XMLID_1_" fill="#FFFFFF" d="M340.1,300.2L340.1,300.2c-2,3.7-6.5,5-10.2,3.1l-76.5-40.9c-2.9-1-5-3.8-5-7.1V110.8
		c0-4.1,3.4-7.5,7.5-7.5s7.5,3.4,7.5,7.5v139.8L337,290C340.7,292,342,296.5,340.1,300.2z"/>
</g>
</svg>
