<?xml version="1.0" encoding="utf-8"?>
<!-- Generator: Adobe Illustrator 19.0.0, SVG Export Plug-In . SVG Version: 6.00 Build 0)  -->
<svg version="1.1" id="Layer_1" xmlns="http://www.w3.org/2000/svg" xmlns:xlink="http://www.w3.org/1999/xlink" x="0px" y="0px"
	 width="512px" height="512px" viewBox="0 0 512 512" enable-background="new 0 0 512 512" xml:space="preserve">
<g id="XMLID_1_">
	<path id="XMLID_6_" fill="#FFFFFF" d="M483.3,296.9c18.4-21.6,28.5-48.7,28.5-77.4c0-65.8-53.5-119.3-119.3-119.3
		c-47.9,0-90.9,28.6-109.6,72c-8.2-3.9-17.3-6.2-27.2-6.7c-24.1-1.3-45.6,7.1-62.2,24.4c-7,7.3-11.8,14.8-14.6,20
		c-13.9-4.8-46.1-12.6-75.7,5.3c-32,17.9-39,46.1-40.6,58.7c-6.4,1.6-17,5.1-27.7,12.3C19.3,296.6,0.3,317-1.5,354.9v0.6l0.1,0.6
		c4.3,39.7,26.2,57.5,43.9,65.5c11.8,5.4,23.2,7,30.3,7.5c1.1,7.1,3.5,18.7,8.8,30.7c11.3,25.9,30.4,41.6,55.1,45.4
		c28.3,8,59.2,1.3,89.5-19.3c13.5-9.2,24.1-19.2,30.4-25.9c4.9,7,13,17.2,23.8,26.7c19.1,16.8,39.9,25.4,61,25.4
		c6.7,0,13.4-0.9,20.1-2.6c24.5-4.5,44.8-19.8,58.9-44.2c7.1-12.4,10.9-24.1,12.6-30.5c7.3-1.6,21.6-5.6,36.1-13.3
		c27.9-15,42.9-37.2,43.4-64.2v-0.1C512.5,332.3,502.5,311.8,483.3,296.9z M392.5,115.2c57.5,0,104.3,46.8,104.3,104.3
		c0,25.7-9.3,50-26.2,69.1c-0.6-0.3-1.1-0.6-1.7-0.9c-14-7.4-27.9-10.8-35.8-12.2c-1.2-13.6-7.8-44.1-41.1-58.5
		c-27.3-12.2-56-2.6-70.2,3.9c-1.8-5.8-4.8-13.5-9.5-21.3c-4.7-7.7-10.3-14.1-16.7-19.2C311.6,141.1,349.8,115.2,392.5,115.2z
		 M462.3,408c-18.1,9.8-36.5,12.9-36.6,12.9l-5.2,0.8l-1,5.1c0,0.2-3,15.3-12.3,31.3c-12,20.6-28.3,32.9-48.6,36.5l-0.6,0.1
		c-23.2,6.1-45.8-0.4-67.4-19.2c-16.7-14.6-26.5-31.6-26.6-31.7l-5.4-9.6l-6.9,8.6c-0.5,0.6-52.7,64.6-111.3,47.6l-0.5-0.1l-0.5-0.1
		c-19.8-2.9-34.5-15.1-43.9-36.3C88.1,437.3,87,421.1,87,421l-0.5-7.4l-7.4,0.4c-0.1,0-14.8,0.7-30.4-6.3
		c-20.4-9.2-32.2-27-35.1-52.9c3.2-59.5,54.9-67.2,57.1-67.5l6.6-0.9l-0.1-6.7c0-1.3,0.1-33.1,33.4-51.7l0.2-0.1
		c31.2-19,68.1-2.1,68.5-1.9l7.3,3.4l2.9-7.5c0.2-0.4,17.7-44.2,65.2-41.6c46.2,2.5,54.3,50.5,54.6,52.6l1.7,11.2l9.6-5.9
		c0.3-0.2,34.9-21.1,65.2-7.6c33.2,14.4,32.4,49.5,32.4,51l-0.3,7l7,0.7c0.2,0,18.5,2,36.8,11.6c23.6,12.4,35.5,31.2,35.5,56
		C497.1,378.4,485.3,395.6,462.3,408z"/>
	<path id="XMLID_14_" fill="#FFFFFF" d="M470.5,105.9L470.5,105.9c3.9,1.4,8.2-0.6,9.6-4.6L511.6,64c1.4-3.9-0.6-8.2-4.6-9.6l0,0
		c-3.9-1.4-8.2,0.6-9.6,4.6l-31.5,37.4C464.6,100.2,466.6,104.5,470.5,105.9z"/>
	<path id="XMLID_15_" fill="#FFFFFF" d="M252.4,98.8l32.9,24.6c3.5,2.2,8.1,1.2,10.3-2.3l0,0c2.2-3.5,1.2-8.1-2.3-10.3l-33.7-25
		c-3.5-2.2-8.1-1.2-10.3,2.3l0,0c-2,3.1-1.3,7.1,1.3,9.5C251.1,98.1,251.8,98.5,252.4,98.8z"/>
	<path id="XMLID_16_" fill="#FFFFFF" d="M380.5,82.8c4.1-0.1,7.4-3.5,7.3-7.6l-1.2-44.4c-0.1-4.1-3.5-7.4-7.6-7.3s-7.4,3.5-7.3,7.6
		l1.2,44.4C373,79.6,376.4,82.8,380.5,82.8z"/>
</g>
</svg>
