<?xml version="1.0" encoding="utf-8"?>
<!-- Generator: Adobe Illustrator 19.0.0, SVG Export Plug-In . SVG Version: 6.00 Build 0)  -->
<svg version="1.1" id="Layer_1" xmlns="http://www.w3.org/2000/svg" xmlns:xlink="http://www.w3.org/1999/xlink" x="0px" y="0px"
	 width="512px" height="512px" viewBox="0 0 512 512" enable-background="new 0 0 512 512" xml:space="preserve">
<g id="XMLID_1_">
	<path id="XMLID_85_" fill="#FFFFFF" d="M196.9,99.1C196.9,44.4,152.6,0,98.1,0S-0.6,44.4-0.6,99.1s44.3,99.1,98.8,99.1
		S196.9,153.7,196.9,99.1z M14.4,99.1C14.4,52.7,51.9,15,98.1,15s83.8,37.7,83.8,84.1s-37.6,84.1-83.8,84.1S14.4,145.5,14.4,99.1z"
		/>
	<rect id="XMLID_86_" x="94.6" y="27.5" fill="#FFFFFF" width="7" height="16.6"/>
	
		<rect id="XMLID_87_" x="58.3" y="40.8" transform="matrix(-0.4986 -0.8668 0.8668 -0.4986 61.4413 124.1383)" fill="#FFFFFF" width="16.6" height="7"/>
	
		<rect id="XMLID_88_" x="35.3" y="64" transform="matrix(-0.8652 -0.5014 0.5014 -0.8652 47.4237 147.6525)" fill="#FFFFFF" width="16.6" height="7"/>
	<rect id="XMLID_89_" x="26.8" y="95.6" fill="#FFFFFF" width="16.6" height="7"/>
	
		<rect id="XMLID_90_" x="40.1" y="122.4" transform="matrix(-0.5014 -0.8652 0.8652 -0.5014 -47.6956 233.9314)" fill="#FFFFFF" width="7" height="16.6"/>
	
		<rect id="XMLID_91_" x="63.1" y="145.6" transform="matrix(-0.8668 -0.4986 0.4986 -0.8668 47.6668 320.4543)" fill="#FFFFFF" width="7" height="16.6"/>
	<rect id="XMLID_92_" x="94.6" y="154" fill="#FFFFFF" width="7" height="16.6"/>
	
		<rect id="XMLID_93_" x="121.3" y="150.4" transform="matrix(-0.4986 -0.8668 0.8668 -0.4986 60.9169 342.9598)" fill="#FFFFFF" width="16.6" height="7"/>
	
		<rect id="XMLID_94_" x="144.4" y="127.2" transform="matrix(0.8652 0.5014 -0.5014 0.8652 86.1222 -58.9537)" fill="#FFFFFF" width="16.6" height="7"/>
	<rect id="XMLID_95_" x="152.9" y="95.6" fill="#FFFFFF" width="16.6" height="7"/>
	
		<rect id="XMLID_96_" x="149.2" y="59.2" transform="matrix(0.5014 0.8652 -0.8652 0.5014 134.5061 -98.499)" fill="#FFFFFF" width="7" height="16.6"/>
	
		<rect id="XMLID_97_" x="126.1" y="36" transform="matrix(0.8668 0.4986 -0.4986 0.8668 39.3558 -58.7457)" fill="#FFFFFF" width="7" height="16.6"/>
	<path id="XMLID_98_" fill="#FFFFFF" d="M94.6,100.1c0,1.9,1.6,3.5,3.5,3.5h25.3l-5.3,3.9c-1.6,1.1-1.9,3.3-0.8,4.9
		c0.7,0.9,1.8,1.4,2.8,1.4c0.7,0,1.4-0.2,2.1-0.7l14-10.2c0.9-0.7,1.4-1.7,1.4-2.8c0-1.1-0.5-2.2-1.4-2.8l-14-10.2
		c-1.6-1.1-3.8-0.8-4.9,0.8c-1.1,1.6-0.8,3.8,0.8,4.9l5.3,3.9h-21.8V65.2l3.8,5.3c0.7,0.9,1.8,1.4,2.8,1.4c0.7,0,1.4-0.2,2.1-0.7
		c1.6-1.1,1.9-3.3,0.8-4.9l-10.2-14c-0.7-0.9-1.7-1.4-2.8-1.4s-2.2,0.5-2.8,1.4l-10.2,14c-1.1,1.6-0.8,3.8,0.8,4.9
		c1.6,1.1,3.8,0.8,4.9-0.8l3.8-5.3V100.1z"/>
	<path id="XMLID_101_" fill="#FFFFFF" d="M489.9,95.9L340.6,14.2c-9-5.3-19.7-6.7-29.9-4c-10.9,2.9-20.6,10.3-26.4,20.4l0,0.1
		l-16.8,30.7c-0.1,0.2-0.3,0.4-0.4,0.6l-8.8,16.3L99.9,368.2c-11.2,19.3-3.9,44.6,16.3,56.4l149.2,81.7c6.1,3.5,12.8,5.3,19.7,5.3
		c3.4,0,6.8-0.4,10.2-1.3c10.9-2.9,20.6-10.3,26.4-20.4l184.5-337.6C517.4,133,510.1,107.7,489.9,95.9z M325.7,447.7L133,340.1
		L271.5,85.4l5.2-9.6l192.7,107.6L325.7,447.7z M308.7,482.5c-3.9,6.6-10.1,11.5-17.2,13.3c-6.4,1.7-13,0.8-18.6-2.5l-149.2-81.7
		c-13-7.7-17.9-23.8-10.8-36l12.4-22.7l194.7,108.8L308.7,482.5z M493.2,144.9l-14.5,26.5L283.9,62.7L297.4,38
		c3.9-6.6,10.1-11.5,17.2-13.3c6.4-1.7,13-0.8,18.6,2.5l149.2,81.7C495.4,116.6,500.3,132.7,493.2,144.9z"/>
	<path id="XMLID_104_" fill="#FFFFFF" d="M430.2,110.1l-6.8-4.1c-1.7-1-3.8-0.5-4.8,1.2c-1,1.7-0.5,3.8,1.2,4.8l6.8,4.1
		c0.6,0.3,1.2,0.5,1.8,0.5c1.2,0,2.3-0.6,3-1.7C432.4,113.2,431.8,111.1,430.2,110.1z"/>
	<path id="XMLID_105_" fill="#FFFFFF" d="M401.6,95l-48.8-27.2c-1.7-0.9-3.8-0.3-4.8,1.4c-0.9,1.7-0.3,3.8,1.4,4.8l48.8,27.2
		c0.5,0.3,1.1,0.4,1.7,0.4c1.2,0,2.4-0.6,3.1-1.8C403.9,98.1,403.3,96,401.6,95z"/>
	<path id="XMLID_108_" fill="#FFFFFF" d="M204.8,412.2c-9.1,0-16.5,7.4-16.5,16.6s7.4,16.6,16.5,16.6s16.5-7.4,16.5-16.6
		S213.9,412.2,204.8,412.2z M204.8,438.3c-5.2,0-9.5-4.3-9.5-9.6s4.3-9.6,9.5-9.6s9.5,4.3,9.5,9.6S210,438.3,204.8,438.3z"/>
	
		<rect id="XMLID_109_" x="311.8" y="173.4" transform="matrix(0.8763 0.4817 -0.4817 0.8763 132.0884 -160.7)" fill="#FFFFFF" width="134.4" height="7"/>
	<path id="XMLID_112_" fill="#FFFFFF" d="M259.2,135.2l36.3,19.6l17.6-32.9l-36.3-19.6L259.2,135.2z M303.6,124.7l-11,20.6
		l-23.9-12.9l11-20.6L303.6,124.7z"/>
	
		<rect id="XMLID_113_" x="283.4" y="225.4" transform="matrix(-0.8763 -0.4817 0.4817 -0.8763 547.452 598.2924)" fill="#FFFFFF" width="134.4" height="7"/>
	<path id="XMLID_116_" fill="#FFFFFF" d="M284.6,173.8l-36.3-19.6l-17.6,32.9l36.3,19.6L284.6,173.8z M240.2,184.3l11-20.6
		l23.9,12.9l-11,20.6L240.2,184.3z"/>
	
		<rect id="XMLID_117_" x="253.2" y="279.2" transform="matrix(-0.8763 -0.4818 0.4818 -0.8763 464.8314 684.8159)" fill="#FFFFFF" width="134.4" height="7"/>
	<path id="XMLID_120_" fill="#FFFFFF" d="M254.4,227.7l-36.3-19.6l-17.6,32.9l36.3,19.6L254.4,227.7z M210,238.2l11-20.6l23.9,12.9
		l-11,20.6L210,238.2z"/>
	
		<rect id="XMLID_121_" x="225.7" y="331.2" transform="matrix(-0.8763 -0.4817 0.4817 -0.8763 388.2697 769.1344)" fill="#FFFFFF" width="134.4" height="7"/>
	<path id="XMLID_124_" fill="#FFFFFF" d="M173.1,293l36.3,19.6l17.6-32.9l-36.3-19.6L173.1,293z M217.5,282.5l-11,20.6l-23.9-12.9
		l11-20.6L217.5,282.5z"/>
</g>
</svg>
