<?xml version="1.0" encoding="utf-8"?>
<!-- Generator: Adobe Illustrator 19.0.0, SVG Export Plug-In . SVG Version: 6.00 Build 0)  -->
<svg version="1.1" id="Layer_1" xmlns="http://www.w3.org/2000/svg" xmlns:xlink="http://www.w3.org/1999/xlink" x="0px" y="0px"
	 width="54.3px" height="64px" viewBox="0 0 54.3 64" enable-background="new 0 0 54.3 64" xml:space="preserve">
<g id="XMLID_53_">
	<g id="XMLID_56_">
		<g id="XMLID_57_">
			<rect id="XMLID_62_" x="19.6" y="49.6" fill="#49A647" width="23.1" height="3.5"/>
			<rect id="XMLID_64_" x="19.6" y="43.6" fill="#49A647" width="23.1" height="4"/>
			<rect id="XMLID_69_" x="11.5" y="31.5" fill="#49A647" width="6.1" height="4.4"/>
			<rect id="XMLID_88_" x="19.6" y="31.5" fill="#49A647" width="23.1" height="4.4"/>
			<rect id="XMLID_89_" x="19.6" y="37.9" fill="#49A647" width="23.1" height="3.7"/>
			<rect id="XMLID_90_" x="11.5" y="49.6" fill="#49A647" width="6.1" height="3.5"/>
			<rect id="XMLID_91_" x="11.5" y="37.9" fill="#49A647" width="6.1" height="3.7"/>
			<path id="XMLID_94_" fill="#49A647" d="M34.5,0H4.6C2.1,0,0,2.1,0,4.6v54.7C0,61.9,2.1,64,4.6,64h45c2.6,0,4.6-2.1,4.6-4.6V18.2
				L34.5,0z M44.8,55.1H9.5V29.5h35.2V55.1z"/>
			<rect id="XMLID_121_" x="11.5" y="43.6" fill="#49A647" width="6.1" height="4"/>
		</g>
	</g>
	<path id="XMLID_54_" fill="#76BB66" d="M54.3,18.2l-19.8,0.1V0L54.3,18.2z"/>
</g>
</svg>
