<?xml version="1.0" encoding="utf-8"?>
<!-- Generator: Adobe Illustrator 19.0.0, SVG Export Plug-In . SVG Version: 6.00 Build 0)  -->
<svg version="1.1" id="Layer_1" xmlns="http://www.w3.org/2000/svg" xmlns:xlink="http://www.w3.org/1999/xlink" x="0px" y="0px"
	 width="54.3px" height="64px" viewBox="0 0 54.3 64" enable-background="new 0 0 54.3 64" xml:space="preserve">
<g id="XMLID_65_">
	<g id="XMLID_675_">
		<path id="XMLID_678_" fill="#3BA8A5" d="M34.5,0H4.6C2.1,0,0,2.1,0,4.6v54.7C0,61.9,2.1,64,4.6,64h45c2.6,0,4.6-2.1,4.6-4.6V18.2
			L34.5,0z M44.7,55H9.6V29.5h35.2V55z"/>
		<path id="XMLID_681_" fill="#3BA8A5" d="M25.6,47.9l3.8-5.5L42.7,53V31.6H11.6V53l7.6-14.8L25.6,47.9z M35.9,34.7
			c1.5,0,2.7,1.2,2.7,2.7s-1.2,2.7-2.7,2.7c-1.5,0-2.7-1.2-2.7-2.7S34.3,34.7,35.9,34.7z"/>
	</g>
	<path id="XMLID_66_" fill="#89CCC9" d="M54.3,18.2l-19.8,0.1V0L54.3,18.2z"/>
</g>
</svg>
