<?xml version="1.0" encoding="utf-8"?>
<!-- Generator: Adobe Illustrator 19.0.0, SVG Export Plug-In . SVG Version: 6.00 Build 0)  -->
<svg version="1.1" id="Layer_1" xmlns="http://www.w3.org/2000/svg" xmlns:xlink="http://www.w3.org/1999/xlink" x="0px" y="0px"
	 width="54.3px" height="64px" viewBox="0 0 54.3 64" style="enable-background:new 0 0 54.3 64;" xml:space="preserve">
<g id="XMLID_184_">
	<path id="XMLID_125_" style="fill:#E8564B;" d="M34.5,0H4.6C2.1,0,0,2.1,0,4.6v54.7C0,61.9,2.1,64,4.6,64h45c2.6,0,4.6-2.1,4.6-4.6
		V18.2L34.5,0z M17.9,51.3c-0.8,0-1.5-0.5-1.8-0.8c-1-1.2-1-2.2-0.8-2.9c0.1-0.6,0.5-1.1,1-1.5c0.8-0.6,2.9-2.1,6.1-3.4
		c1.7-3,2.8-5.5,3.6-7.4c-1.3-2.5-1.8-4.5-1.9-5.5c-0.1-0.8-0.1-1.7,0.2-2.4c0.6-1.9,1.9-2,2.4-1.9c0.1,0,2.2,0.3,2.6,3.3
		c0,0.1,0.2,2-1.4,6.5c1,1.7,2.4,3.6,4.6,5.5c2.1,0,4.3,0.2,6.7,0.8c0.5,0.1,1,0.4,1.4,0.8c0.6,0.7,0.7,1.5,0.4,2.3l0,0
		c0,0-0.1,0.4-0.5,0.8c-0.7,0.9-1.9,1.2-2.9,0.7c-2.3-1.2-4.2-2.4-5.7-3.7c-3.1,0.1-5.9,0.8-8.2,1.7c-1,1.8-2.3,3.9-3.7,6.1
		c-0.3,0.4-0.7,0.8-1.1,1l0,0C18.4,51.3,18.1,51.3,17.9,51.3z M20.8,45.3c-1.8,1-3,1.8-3.5,2.2c-0.2,0.2-0.4,0.4-0.4,0.5
		c-0.1,0.4,0.1,0.8,0.5,1.3c0,0,0.4,0.3,0.7,0.2l0,0c0.1-0.1,0.2-0.1,0.3-0.3C19.3,47.9,20.1,46.6,20.8,45.3z M34.6,42.5
		c1.1,0.7,2.3,1.5,3.6,2.1c0.2,0.1,0.5,0.1,0.7-0.2s0.2-0.4,0.2-0.4c0.1-0.3,0.1-0.4-0.1-0.6c-0.1-0.1-0.3-0.2-0.5-0.3
		C37.3,42.8,36,42.6,34.6,42.5z M26.9,37.2c-0.6,1.4-1.3,2.9-2.3,4.7c1.6-0.5,3.3-0.9,5.2-1.1C28.7,39.6,27.7,38.3,26.9,37.2z
		 M26.3,27.2c-0.2,0-0.4,0.2-0.6,0.8c-0.2,0.5-0.2,1-0.1,1.6c0.1,0.7,0.4,1.9,1,3.4c0.9-2.9,0.8-4,0.8-4
		C27.2,27.4,26.4,27.2,26.3,27.2L26.3,27.2z"/>
	<path id="XMLID_84_" style="fill:#F48484;" d="M54.3,18.2l-19.8,0.1V0L54.3,18.2z"/>
</g>
</svg>
