<?xml version="1.0" encoding="utf-8"?>
<!-- Generator: Adobe Illustrator 19.0.0, SVG Export Plug-In . SVG Version: 6.00 Build 0)  -->
<svg version="1.1" id="Layer_1" xmlns="http://www.w3.org/2000/svg" xmlns:xlink="http://www.w3.org/1999/xlink" x="0px" y="0px"
	 width="54.3px" height="64px" viewBox="0 0 54.3 64" enable-background="new 0 0 54.3 64" xml:space="preserve">
<g id="XMLID_289_">
	<path id="XMLID_292_" fill="#D16928" d="M34.5,0H4.6C2.1,0,0,2.1,0,4.6v54.7C0,61.9,2.1,64,4.6,64h45c2.6,0,4.6-2.1,4.6-4.6V18.2
		L34.5,0z M44.9,29.6v2H25.7v-2H44.9z M25.6,35.9h19.5v2H25.6V35.9z M44.9,55.1H9.4v-2h35.5V55.1z M44.8,43.5H9.4v-2h35.5V43.5z
		 M44.9,49.5H9.4v-2h35.5V49.5z M22.1,33.3c0,0.1,0,0.1,0,0.2l-5.3-0.4l-2.4-4.4c0.8-0.4,1.6-0.6,2.5-0.6
		C19.8,28.2,22.1,30.5,22.1,33.3z M14,29l2.5,4.6l5.6,0.4c-0.1,2.9-2.5,5.2-5.5,5.2c-3,0-5.5-2.4-5.5-5.4C11.1,31.7,12.3,29.9,14,29
		z"/>
	<path id="XMLID_290_" fill="#DF8D50" d="M54.3,18.2l-19.8,0.1V0L54.3,18.2z"/>
</g>
</svg>
