<?xml version="1.0" encoding="utf-8"?>
<!-- Generator: Adobe Illustrator 19.0.0, SVG Export Plug-In . SVG Version: 6.00 Build 0)  -->
<svg version="1.1" id="Layer_1" xmlns="http://www.w3.org/2000/svg" xmlns:xlink="http://www.w3.org/1999/xlink" x="0px" y="0px"
	 width="54.3px" height="64px" viewBox="0 0 54.3 64" enable-background="new 0 0 54.3 64" xml:space="preserve">
<g id="XMLID_521_">
	<path id="XMLID_460_" fill="#3D85C6" d="M34.5,0H4.6C2.1,0,0,2.1,0,4.6v54.7C0,61.9,2.1,64,4.6,64h45c2.6,0,4.6-2.1,4.6-4.6V18.2
		L34.5,0z M44.8,29.6v2H18.7v-2H44.8z M9.7,35.9h35.5v2H9.7V35.9z M44.9,55.1H9.4v-2h35.5V55.1z M44.8,43.5H9.4v-2h35.5V43.5z
		 M44.9,49.5H9.4v-2h35.5V49.5z"/>
	<path id="XMLID_458_" fill="#6AA3D8" d="M54.3,18.2l-19.8,0.1V0L54.3,18.2z"/>
</g>
</svg>
