<?xml version="1.0" encoding="utf-8"?>
<!-- Generator: Adobe Illustrator 19.0.0, SVG Export Plug-In . SVG Version: 6.00 Build 0)  -->
<svg version="1.1" id="Layer_1" xmlns="http://www.w3.org/2000/svg" xmlns:xlink="http://www.w3.org/1999/xlink" x="0px" y="0px"
	 width="54.3px" height="64px" viewBox="0 0 54.3 64" enable-background="new 0 0 54.3 64" xml:space="preserve">
<g id="XMLID_950_">
	<path id="XMLID_1014_" fill="#B7B7B7" d="M34.5,0H4.6C2.1,0,0,2.1,0,4.6v54.7C0,61.9,2.1,64,4.6,64h45c2.6,0,4.6-2.1,4.6-4.6V18.2
		L34.5,0z M27.5,52.6h-3.4v-3.6h3.4V52.6z M32.8,36.9c-0.5,0.8-1.5,1.9-3,3.3c-1.1,1.1-1.8,2-2.1,2.7c-0.3,0.7-0.5,1.8-0.5,3.3h-3.1
		c0-1.6,0.2-3,0.6-4c0.4-1,1.2-2.1,2.6-3.4l1.4-1.4c0.4-0.4,0.7-0.8,1-1.2c0.5-0.7,0.7-1.5,0.7-2.3c0-1.1-0.3-2.1-1-2.9
		c-0.7-0.8-1.8-1.2-3.3-1.2c-1.9,0-3.2,0.7-4,2.1c-0.4,0.8-0.6,1.9-0.7,3.4h-3.1c0-2.5,0.7-4.5,2.1-6s3.3-2.3,5.7-2.3
		c2.3,0,4.1,0.6,5.4,1.9s2,2.9,2,4.9C33.6,35.2,33.3,36.2,32.8,36.9z"/>
	<path id="XMLID_951_" fill="#E1E1E1" d="M54.3,18.2l-19.8,0.1V0L54.3,18.2z"/>
</g>
</svg>
