<?xml version="1.0" encoding="utf-8"?>
<!-- Generator: Adobe Illustrator 19.0.0, SVG Export Plug-In . SVG Version: 6.00 Build 0)  -->
<svg version="1.1" id="Layer_1" xmlns="http://www.w3.org/2000/svg" xmlns:xlink="http://www.w3.org/1999/xlink" x="0px" y="0px"
	 width="54.3px" height="64px" viewBox="0 0 54.3 64" enable-background="new 0 0 54.3 64" xml:space="preserve">
<g id="XMLID_463_">
	<path id="XMLID_564_" fill="#3D85C6" d="M34.5,0H4.6C2.1,0,0,2.1,0,4.6v54.7C0,61.9,2.1,64,4.6,64h45c2.6,0,4.6-2.1,4.6-4.6V18.2
		L34.5,0z M34.6,53.8h-4.7l-2.5-11.3c-0.6-2.8-1-5-1.4-7.6h-0.1c-0.4,2.6-0.9,4.9-1.6,7.6l-2.8,11.3h-4.8l-5.9-24.1h4.7l2.3,10.9
		c0.6,2.9,1.2,6,1.6,8.4h0.1c0.4-2.5,1.1-5.4,1.8-8.4l2.6-10.9h4.6l2.4,11.1c0.6,2.9,1.1,5.5,1.5,8.2h0.1c0.4-2.6,1-5.4,1.6-8.4
		l2.5-10.9h4.5L34.6,53.8z"/>
	<path id="XMLID_464_" fill="#6AA3D8" d="M54.3,18.2l-19.8,0.1V0L54.3,18.2z"/>
</g>
</svg>
