<?xml version="1.0" encoding="utf-8"?>
<!-- Generator: Adobe Illustrator 19.0.0, SVG Export Plug-In . SVG Version: 6.00 Build 0)  -->
<svg version="1.1" id="Layer_1" xmlns="http://www.w3.org/2000/svg" xmlns:xlink="http://www.w3.org/1999/xlink" x="0px" y="0px"
	 width="512px" height="512px" viewBox="0 0 512 512" enable-background="new 0 0 512 512" xml:space="preserve">
<g id="XMLID_3_">
	<path id="XMLID_8_" d="M256,0C187.9,0,123.7,26.7,75.2,75.2S0,187.9,0,256s26.7,132.3,75.2,180.8S187.9,512,256,512
		s132.3-26.7,180.8-75.2S512,324.1,512,256C512,114.8,397.2,0,256,0z M426.2,426.2C380.5,471.9,320.1,497,256,497
		s-124.5-25.1-170.2-70.8C40.2,380.5,15,320.1,15,256S40.1,131.5,85.8,85.8S191.9,15,256,15c132.9,0,241,108.1,241,241
		C497,320.1,471.8,380.5,426.2,426.2z"/>
	<path id="XMLID_10_" d="M406.9,248.5H263.5V105.2c0-4.1-3.4-7.5-7.5-7.5s-7.5,3.4-7.5,7.5v143.4H105.1c-4.1,0-7.5,3.4-7.5,7.5
		s3.4,7.5,7.5,7.5h143.4v143.3c0,4.1,3.4,7.5,7.5,7.5s7.5-3.4,7.5-7.5V263.5h143.3c4.1,0,7.5-3.4,7.5-7.5S411,248.5,406.9,248.5z"/>
</g>
</svg>
