<?xml version="1.0" encoding="iso-8859-1"?>
<!-- Generator: Adobe Illustrator 19.0.0, SVG Export Plug-In . SVG Version: 6.00 Build 0)  -->
<svg version="1.1" id="Capa_1" xmlns="http://www.w3.org/2000/svg" xmlns:xlink="http://www.w3.org/1999/xlink" x="0px" y="0px"
	 viewBox="0 0 512 512" style="enable-background:new 0 0 512 512;" xml:space="preserve">
<g transform="matrix(1.25 0 0 -1.25 0 45)">
	<g>
		<g>
			<path style="fill:#032EA1;" d="M409.6-271.2c0-25.134-20.378-45.511-45.511-45.511H45.511C20.378-316.711,0-296.334,0-271.2
				v204.8c0,25.134,20.378,45.511,45.511,45.511h318.578c25.134,0,45.511-20.378,45.511-45.511V-271.2z"/>
			<path style="fill:#E01E24;" d="M409.6-253.314H0v169.017h409.6V-253.314L409.6-253.314z"/>
			<path style="fill:#FFFFFF;" d="M307.428-224.551v10.263h-6.167v10.263h-5.643v6.667h-2.571v5.131h-4.983l-2.708,3.88v18.182
				l3.072,3.083v16.942l-2.56-2.31v5.393h-2.059v-2.571h-4.096v8.215l-4.87-4.369l1.536,5.518l-2.833,12.709h-1.536
				c0,0-1.274,5.382-3.834,5.382c0,0,1.024,3.334-1.035,3.334s-1.547-2.56-1.547-2.56s-3.584-1.547-3.584-5.393l-2.048,0.25
				l-3.083-14.871l2.162-4.369l-4.995,4.369v-7.703v-3.595h-16.919h-10.263v10.263l-1.547-1.525v-3.607h-3.584v3.607l2.56,2.298
				v4.87l-2.059-2.173l-3.083,4.233v3.595l-1.786-1.786l-0.523,3.072l2.571,4.096l-0.387,3.334l-2.947-3.584v3.072l1.286,2.822
				l-5.905,14.882l-1.411,4.119l-2.185,0.25v2.059c0,0-1.536,3.584-3.595,3.584c-2.048,0-3.584-3.584-3.584-3.584v-2.059
				l-2.185-0.25l-1.422-4.119l-5.894-14.882l1.286-2.822v-3.072l-2.947,3.584l-0.398-3.334l2.571-4.096l-0.512-3.072l-1.798,1.786
				v-3.595l-3.072-4.233l-2.059,2.173v-4.87l2.56-2.298v-3.607h-3.584v3.607l-1.547,1.525v-10.263h-10.263h-16.93v3.595v7.703
				l-4.995-4.369l2.173,4.369l-3.083,14.871l-2.059-0.25c0,3.846-3.584,5.393-3.584,5.393s0.512,2.56-1.547,2.56
				c-2.048,0-1.024-3.334-1.024-3.334c-2.56,0-3.846-5.382-3.846-5.382h-1.536l-2.822-12.709l1.536-5.518l-4.87,4.369v-8.215h-4.107
				v2.571h-2.059v-5.393l-2.549,2.31v-16.942l3.072-3.083v-18.182l-2.719-3.88h-3.959v-5.131h-3.584v-6.667h-5.143v-10.263h-5.643
				v-10.263h-5.643l-0.512-11.275h216.576l0.512,11.275H307.428z"/>
			<g>
				<path style="fill:#DB7F86;" d="M198.633-235.804h-4.028v68.494h4.028V-235.804z"/>
				<path style="fill:#DB7F86;" d="M215.177-235.804h-3.971v68.494h3.971V-235.804z"/>
				<path style="fill:#DB7F86;" d="M135.828-235.804h-3.891v68.494h3.891V-235.804z"/>
				<path style="fill:#DB7F86;" d="M152.61-235.69h-3.755v68.494h3.755V-235.69z"/>
				<path style="fill:#DB7F86;" d="M260.972-235.804h-4.858v68.494h4.858V-235.804z"/>
				<path style="fill:#DB7F86;" d="M277.766-235.804h-3.846v68.494h3.846V-235.804z"/>
				<path style="fill:#DB7F86;" d="M131.937-191.328h-11.446l2.207,4.312h9.239V-191.328z"/>
				<path style="fill:#DB7F86;" d="M288.165-191.328H273.92v4.312h12.22L288.165-191.328z"/>
				<path style="fill:#DB7F86;" d="M197.166-191.351h-47.332v4.312h47.332V-191.351z"/>
				<path style="fill:#DB7F86;" d="M259.971-191.351h-47.343v4.312h47.343V-191.351z"/>
			</g>
		</g>
	</g>
</g>
<g>
</g>
<g>
</g>
<g>
</g>
<g>
</g>
<g>
</g>
<g>
</g>
<g>
</g>
<g>
</g>
<g>
</g>
<g>
</g>
<g>
</g>
<g>
</g>
<g>
</g>
<g>
</g>
<g>
</g>
</svg>
