<?xml version="1.0" encoding="utf-8"?>
<!-- Generator: Adobe Illustrator 19.0.0, SVG Export Plug-In . SVG Version: 6.00 Build 0)  -->
<svg version="1.1" id="Layer_1" xmlns="http://www.w3.org/2000/svg" xmlns:xlink="http://www.w3.org/1999/xlink" x="0px" y="0px"
	 width="512px" height="512px" viewBox="0 0 512 512" enable-background="new 0 0 512 512" xml:space="preserve">
<path id="XMLID_7_" fill="#D92127" d="M437.1,74.5c-48.4-48.3-112.6-75-181-75c-68.4,0-132.7,26.6-181,75
	c-48.4,48.4-75,112.6-75,181c0,68.4,26.6,132.7,75,181c48.4,48.3,112.6,75,181,75c68.4,0,132.7-26.6,181-75
	c48.4-48.4,75-112.6,75-181C512.1,187.2,485.4,122.9,437.1,74.5z M363.1,174.2L223.2,353l-0.7,0.7c-0.7,0-0.7,0.7-0.7,0.7
	c-4.9,5.7-14.1,6.4-19.8,1.4l-50.9-43.1c-5.7-4.9-6.4-14.1-1.4-19.8c4.9-5.7,14.1-6.4,19.8-1.4l39.6,33.9l131.5-168.2
	c4.9-5.7,13.4-7.1,19.8-2.1C366.6,160,367.4,169.2,363.1,174.2z"/>
</svg>
