<?xml version="1.0" encoding="utf-8"?>
<!-- Generator: Adobe Illustrator 19.0.0, SVG Export Plug-In . SVG Version: 6.00 Build 0)  -->
<svg version="1.1" id="Layer_2" xmlns="http://www.w3.org/2000/svg" xmlns:xlink="http://www.w3.org/1999/xlink" x="0px" y="0px"
	 width="512px" height="512px" viewBox="0 0 512 512" enable-background="new 0 0 512 512" xml:space="preserve">
<g id="XMLID_5_">
	<path id="XMLID_66_" fill="#666766" d="M442.5,256.5c0-102.6-83.4-186-186-186s-186,83.4-186,186s83.4,186,186,186
		S442.5,359.1,442.5,256.5z M256.5,427.5c-94.3,0-171-76.7-171-171c0-94.3,76.7-171,171-171c94.3,0,171,76.7,171,171
		C427.5,350.8,350.8,427.5,256.5,427.5z"/>
	<path id="XMLID_4_" fill="#666766" d="M320.1,327.2c-2,3.7-6.5,5-10.2,3.1l-56.5-40.9c-2.9-1-5-3.8-5-7.1V177.8
		c0-4.1,3.4-7.5,7.5-7.5c4.1,0,7.5,3.4,7.5,7.5v99.8L317,317C320.7,319,322,323.5,320.1,327.2z"/>
	<path id="XMLID_68_" fill="#666766" d="M496.5,256.5c0,1.9,0,3.9-0.1,5.8l15,0.4c0-2,0.1-4.1,0.1-6.2H496.5z"/>
	<path id="XMLID_69_" fill="#666766" d="M122.3,475.2c3.5,2.1,7,4.2,10.6,6.1l7.2-13.1c-3.3-1.8-6.7-3.8-9.9-5.7L122.3,475.2z"/>
	<path id="XMLID_70_" fill="#666766" d="M83.4,446c3,2.7,6.1,5.4,9.2,8l9.5-11.5c-2.9-2.4-5.8-4.9-8.7-7.5L83.4,446z"/>
	<path id="XMLID_71_" fill="#666766" d="M102.1,461.5c3.2,2.4,6.6,4.8,9.9,7.1l8.4-12.4c-3.1-2.1-6.3-4.4-9.3-6.7L102.1,461.5z"/>
	<path id="XMLID_72_" fill="#666766" d="M143.7,486.9c3.7,1.8,7.4,3.5,11.1,5.1l5.9-13.8c-3.5-1.5-7-3.1-10.4-4.8L143.7,486.9z"/>
	<path id="XMLID_73_" fill="#666766" d="M213.2,509c4,0.7,8,1.2,12.1,1.7l1.8-14.9c-3.8-0.4-7.6-1-11.4-1.6L213.2,509z"/>
	<path id="XMLID_74_" fill="#666766" d="M166.1,496.5c3.8,1.4,7.7,2.8,11.5,4l4.5-14.3c-3.6-1.2-7.3-2.4-10.9-3.8L166.1,496.5z"/>
	<path id="XMLID_75_" fill="#666766" d="M237.4,511.9c4,0.3,8.1,0.5,12.2,0.6l0.3-15c-3.8-0.1-7.7-0.3-11.5-0.5L237.4,511.9z"/>
	<path id="XMLID_76_" fill="#666766" d="M189.4,503.9c3.9,1,7.9,2,11.8,2.9l3.2-14.6c-3.7-0.8-7.5-1.7-11.1-2.7L189.4,503.9z"/>
	<path id="XMLID_77_" fill="#666766" d="M77.2,418.7l-11.1,10.1c2.7,3,5.6,6,8.4,8.8L85.1,427C82.4,424.3,79.8,421.5,77.2,418.7z"/>
	<path id="XMLID_78_" fill="#666766" d="M17.8,296.8l-14.8,2.5c0.7,4,1.4,8,2.3,12L20,308C19.2,304.3,18.4,300.5,17.8,296.8z"/>
	<path id="XMLID_79_" fill="#666766" d="M22.7,319.2L8.2,323c1,3.9,2.2,7.8,3.4,11.7l14.3-4.6C24.8,326.5,23.7,322.8,22.7,319.2z"/>
	<path id="XMLID_80_" fill="#666766" d="M15.1,274l-14.9,1.1c0.3,4,0.7,8.1,1.2,12.1l14.9-1.8C15.7,281.6,15.4,277.8,15.1,274z"/>
	<path id="XMLID_81_" fill="#666766" d="M29.7,341l-14,5.2c1.4,3.8,2.9,7.6,4.5,11.3l13.8-5.9C32.5,348.1,31,344.5,29.7,341z"/>
	<path id="XMLID_82_" fill="#666766" d="M62.6,401l-12,9c2.4,3.2,5,6.4,7.5,9.6l11.5-9.5C67.3,407.1,64.9,404.1,62.6,401z"/>
	<path id="XMLID_83_" fill="#666766" d="M49.7,382.1L37,389.9c2.1,3.4,4.3,6.9,6.6,10.2l12.4-8.4C53.8,388.6,51.7,385.3,49.7,382.1z
		"/>
	<path id="XMLID_84_" fill="#666766" d="M38.7,362l-13.5,6.6c1.8,3.6,3.6,7.3,5.6,10.8l13.1-7.2C42.2,368.8,40.4,365.4,38.7,362z"/>
	<path id="XMLID_85_" fill="#666766" d="M485.1,329.9l14.3,4.6c1.2-3.8,2.4-7.8,3.4-11.7l-14.5-3.9
		C487.4,322.6,486.3,326.3,485.1,329.9z"/>
	<path id="XMLID_86_" fill="#666766" d="M408.9,442.4l9.5,11.5c3.1-2.6,6.2-5.3,9.2-8l-10.1-11.1C414.7,437.5,411.8,440,408.9,442.4
		z"/>
	<path id="XMLID_87_" fill="#666766" d="M425.9,427l10.6,10.6c2.9-2.9,5.7-5.8,8.4-8.8l-11.1-10.1
		C431.2,421.5,428.6,424.3,425.9,427z"/>
	<path id="XMLID_88_" fill="#666766" d="M455.1,391.7l12.4,8.4c2.3-3.3,4.5-6.8,6.6-10.2l-12.8-7.8
		C459.3,385.3,457.2,388.5,455.1,391.7z"/>
	<path id="XMLID_89_" fill="#666766" d="M441.3,410l11.5,9.5c2.6-3.1,5.1-6.3,7.5-9.6l-12-9C446.1,404.1,443.7,407.1,441.3,410z"/>
	<path id="XMLID_90_" fill="#666766" d="M467,372.1l13.1,7.2c1.9-3.6,3.8-7.2,5.6-10.8l-13.5-6.6C470.7,365.3,468.9,368.8,467,372.1
		z"/>
	<path id="XMLID_91_" fill="#666766" d="M494.8,285.2l14.9,1.8c0.5-4,0.9-8.1,1.1-12.1l-14.9-1.1
		C495.7,277.6,495.3,281.4,494.8,285.2z"/>
	<path id="XMLID_92_" fill="#666766" d="M491.1,307.8l14.6,3.2c0.9-4,1.6-8,2.3-12l-14.8-2.5C492.6,300.3,491.9,304.1,491.1,307.8z"
		/>
	<path id="XMLID_93_" fill="#666766" d="M477.1,351.5l13.8,5.9c1.6-3.7,3.1-7.5,4.5-11.3l-14-5.2C480,344.4,478.6,348,477.1,351.5z"
		/>
	<path id="XMLID_94_" fill="#666766" d="M284.2,495.8l1.8,14.9c4-0.5,8.1-1.1,12.1-1.7l-2.5-14.8C291.8,494.8,288,495.4,284.2,495.8
		z"/>
	<path id="XMLID_95_" fill="#666766" d="M390.6,456.2l8.4,12.4c3.3-2.3,6.7-4.6,9.9-7.1l-9-12C396.8,451.8,393.7,454,390.6,456.2z"
		/>
	<path id="XMLID_96_" fill="#666766" d="M261.4,497.5l0.4,15c4-0.1,8.1-0.3,12.2-0.6l-1.1-14.9C269,497.2,265.2,497.4,261.4,497.5z"
		/>
	<path id="XMLID_97_" fill="#666766" d="M306.8,492.1l3.2,14.6c4-0.9,7.9-1.8,11.8-2.9l-3.9-14.5
		C314.3,490.3,310.6,491.2,306.8,492.1z"/>
	<path id="XMLID_98_" fill="#666766" d="M371,468.1l7.2,13.1c3.5-1.9,7.1-4,10.5-6.1l-7.8-12.8C377.7,464.3,374.3,466.3,371,468.1z"
		/>
	<path id="XMLID_99_" fill="#666766" d="M350.4,478.1l5.9,13.8c3.7-1.6,7.4-3.3,11.1-5.1l-6.5-13.5
		C357.4,475,353.9,476.6,350.4,478.1z"/>
	<path id="XMLID_100_" fill="#666766" d="M329,486.1l4.6,14.3c3.9-1.2,7.7-2.6,11.5-4l-5.2-14C336.3,483.7,332.6,485,329,486.1z"/>
	<path id="XMLID_6_" fill="#666766" d="M14.5,262.3l-15,0.4c0-2.1-0.1-4.1-0.1-6.2c0-68.4,26.6-132.7,75-181
		c48.4-48.4,112.6-75,181-75c41.9,0,83.2,10.3,119.9,29.8l14.9-29.8l27.4,62.4l-67,17.1l18.1-36.3C334,25.2,295.1,15.5,255.5,15.5
		c-64.4,0-124.9,25.1-170.4,70.6c-45.5,45.5-70.6,106.1-70.6,170.4C14.5,258.4,14.5,260.4,14.5,262.3z"/>
</g>
</svg>
