<?xml version="1.0" encoding="utf-8"?>
<!-- Generator: Adobe Illustrator 19.0.0, SVG Export Plug-In . SVG Version: 6.00 Build 0)  -->
<svg version="1.1" id="Layer_1" xmlns="http://www.w3.org/2000/svg" xmlns:xlink="http://www.w3.org/1999/xlink" x="0px" y="0px"
	 width="512px" height="512px" viewBox="0 0 512 512" enable-background="new 0 0 512 512" xml:space="preserve">
<g id="XMLID_4_">
	<path id="XMLID_3_" fill="#FFFFFF" d="M512,256c0,141.4-114.6,256-256,256S0,397.4,0,256S114.6,0,256,0S512,114.6,512,256z"/>
	<g id="XMLID_7_">
		<path id="XMLID_14_" fill="#547DBF" d="M350.2,250h-11.6c-1.4-20.1-9.8-38.7-24.2-53.1c-14.4-14.4-33-22.8-53.1-24.2v-10.9
			c0-3.2-2.6-5.8-5.8-5.8l0,0c-3.2,0-5.8,2.6-5.8,5.8v10.9c-20.1,1.4-38.7,9.8-53.1,24.2c-14.4,14.4-22.8,33-24.2,53.1h-10.5
			c-3.2,0-5.8,2.6-5.8,5.8l0,0c0,3.2,2.6,5.8,5.8,5.8h10.5c1.4,20.1,9.8,38.7,24.2,53.1c14.4,14.4,33,22.8,53.1,24.2v11.2
			c0,3.2,2.6,5.8,5.8,5.8l0,0c3.2,0,5.8-2.6,5.8-5.8V339c20.1-1.4,38.7-9.8,53.1-24.2c14.4-14.4,22.8-33,24.2-53.1h11.6
			c3.2,0,5.8-2.6,5.8-5.8l0,0C356,252.6,353.4,250,350.2,250z M255.5,327.8c-39.7,0-72-32.3-72-72s32.3-72,72-72s72,32.3,72,72
			S295.2,327.8,255.5,327.8z"/>
		<path id="XMLID_1_" fill="#547DBF" d="M295.6,255.9c0,22.2-18,40.3-40.3,40.3s-40.3-18-40.3-40.3s18-40.3,40.3-40.3
			C277.6,215.7,295.6,233.6,295.6,255.9z"/>
	</g>
</g>
</svg>
