<?xml version="1.0" encoding="utf-8"?>
<!-- Generator: Adobe Illustrator 19.0.0, SVG Export Plug-In . SVG Version: 6.00 Build 0)  -->
<svg version="1.1" id="Layer_1" xmlns="http://www.w3.org/2000/svg" xmlns:xlink="http://www.w3.org/1999/xlink" x="0px" y="0px"
	 width="512px" height="512px" viewBox="0 0 512 512" enable-background="new 0 0 512 512" xml:space="preserve">
<g>
	<path fill="#E72225" d="M404.5,61.5h-79.7C320.8,27,291.5,0.2,256,0.2s-64.8,26.9-68.8,61.3h-79.7C75.2,61.5,49,87.7,49,120v3
		c0,24.6,15.3,45.7,37,54.3v276.3c0,32.3,26.2,58.5,58.5,58.5h223.1c32.3,0,58.5-26.2,58.5-58.5V177.3c21.6-8.6,37-29.7,37-54.3v-3
		C463,87.7,436.8,61.5,404.5,61.5z M256,27.9c20.2,0,37.1,14.5,40.8,33.6h-81.6C218.9,42.3,235.8,27.9,256,27.9z M398.3,453.6
		c0,17-13.8,30.8-30.7,30.8H144.5c-17,0-30.7-13.8-30.7-30.8V181.5h284.6v272.1H398.3z M435.3,123c0,17-13.8,30.8-30.7,30.8H107.5
		c-17,0-30.7-13.8-30.7-30.8v-3c0-17,13.8-30.8,30.7-30.8h297.1c17,0,30.7,13.8,30.7,30.8V123L435.3,123z"/>
	<path id="XMLID_1_" fill="#E72225" d="M181.6,448.9c7.7,0,13.9-6.2,13.9-13.9V278.9c0-7.7-6.2-13.9-13.9-13.9s-13.9,6.2-13.9,13.9
		V435C167.8,442.7,174,448.9,181.6,448.9z M256,448.9c7.7,0,13.9-6.2,13.9-13.9V278.9c0-7.7-6.2-13.9-13.9-13.9
		c-7.7,0-13.9,6.2-13.9,13.9V435C242.1,442.7,248.3,448.9,256,448.9z M330.4,448.9c7.7,0,13.9-6.2,13.9-13.9V278.9
		c0-7.7-6.2-13.9-13.9-13.9c-7.7,0-13.9,6.2-13.9,13.9V435C316.5,442.7,322.7,448.9,330.4,448.9z"/>
</g>
</svg>
