<?xml version="1.0" encoding="utf-8"?>
<!-- Generator: Adobe Illustrator 19.0.0, SVG Export Plug-In . SVG Version: 6.00 Build 0)  -->
<svg version="1.1" xmlns="http://www.w3.org/2000/svg" xmlns:xlink="http://www.w3.org/1999/xlink" x="0px" y="0px" width="512px"
	 height="512px" viewBox="0 0 512 512" enable-background="new 0 0 512 512" xml:space="preserve">
<g id="Layer_1" display="none">
	<g id="XMLID_379_" display="inline">
		<path id="XMLID_383_" fill="#7A7A7A" d="M435.3,0h-324c-42.4,0-76,34.4-76,76v12H16.9c-8.8,0-16,7.2-16,16s7.2,16,16,16h18.4v68
			H16.9c-8.8,0-16,7.2-16,16s7.2,16,16,16h18.4v67.2H16.9c-8.8,0-16,7.2-16,16s7.2,16,16,16h18.4v68H16.9c-8.8,0-16,7.2-16,16
			s7.2,16,16,16h18.4V436c0,41.6,34.4,76,76,76h324c41.6,0,76-34.4,76-76V76C511.3,34.4,476.9,0,435.3,0z M479.3,436
			c0,24-20,44-44,44h-324c-24,0-44-20-44-44v-16.8h9.6c8.8,0,16-7.2,16-16s-7.2-16-16-16h-9.6v-68h9.6c8.8,0,16-7.2,16-16
			s-7.2-16-16-16h-9.6V220h9.6c8.8,0,16-7.2,16-16s-7.2-16-16-16h-9.6v-68h9.6c8.8,0,16-7.2,16-16s-7.2-16-16-16h-9.6V76
			c0-24,20-44,44-44h324c24,0,44,20,44,44V436z"/>
		<path id="XMLID_386_" fill="#7A7A7A" d="M337.7,272c-8-3.2-16.8-6.4-26.4-12l0,0c6.4-7.2,9.6-16.8,12-25.6c1.6-2.4,3.2-5.6,4-8.8
			c0.8-1.6,1.6-3.2,1.6-5.6v-0.8c1.6-5.6,5.6-16.8-0.8-24c0.8-8.8,1.6-20.8-0.8-28c-7.2-27.2-48.8-36-68.8-33.6
			c-11.2,1.6-16.8,5.6-19.2,10.4c-24.8,10.4-24,34.4-21.6,52c-5.6,8-3.2,16.8-1.6,22.4c0,0.8,0,1.6,0.8,1.6c0.8,1.6,0.8,3.2,1.6,5.6
			c0,4,1.6,7.2,4,10.4c2.4,8.8,4.8,18.4,11.2,25.6c-9.6,4.8-18.4,8-26.4,11.2c-28.8,10.4-45.6,19.2-45.6,72v12h221.6V344
			C384.1,292.8,367.3,283.2,337.7,272z M186.5,332c1.6-27.2,8.8-30.4,29.6-37.6c9.6-4,22.4-8,36.8-16.8l5.6-3.2v-24l-4.8-3.2
			c-1.6-0.8-2.4-2.4-3.2-4l-8-42.4c-4-23.2-3.2-32,9.6-36l8.8-2.4v-4.8c5.6-0.8,17.6,0,29.6,4c8,3.2,12.8,7.2,14.4,12
			c1.6,4,0.8,17.6-1.6,27.2l-7.2,39.2c-0.8,2.4-2.4,4-3.2,4.8l-5.6,3.2v25.6l5.6,3.2c13.6,8,26.4,12.8,36,16.8
			c21.6,8.8,29.6,11.2,30.4,37.6H186.5V332z"/>
	</g>
</g>
<g id="Layer_2">
	<g id="XMLID_5_">
		<path id="XMLID_10_" fill="#666766" d="M464,0.2H79.4c-26.2,0-47.5,21.3-47.5,47.5v48.7H7.5c-4.1,0-7.5,3.4-7.5,7.5
			s3.4,7.5,7.5,7.5h24.4v85H7.5c-4.1,0-7.5,3.4-7.5,7.5s3.4,7.5,7.5,7.5h24.4v86H7.5c-4.1,0-7.5,3.4-7.5,7.5s3.4,7.5,7.5,7.5h24.4
			v85H7.5c-4.1,0-7.5,3.4-7.5,7.5s3.4,7.5,7.5,7.5h24.4v52c0,26.2,21.3,47.5,47.5,47.5H464c26.2,0,47.5-21.3,47.5-47.5V47.7
			C511.5,21.5,490.2,0.2,464,0.2z M496.5,464.4c0,17.9-14.6,32.5-32.5,32.5H79.4c-17.9,0-32.5-14.6-32.5-32.5v-52h23.9
			c4.1,0,7.5-3.4,7.5-7.5s-3.4-7.5-7.5-7.5H46.9v-85h23.9c4.1,0,7.5-3.4,7.5-7.5s-3.4-7.5-7.5-7.5H46.9v-86h23.9
			c4.1,0,7.5-3.4,7.5-7.5s-3.4-7.5-7.5-7.5H46.9v-85h23.9c4.1,0,7.5-3.4,7.5-7.5s-3.4-7.5-7.5-7.5H46.9V47.7
			c0-17.9,14.6-32.5,32.5-32.5H464c17.9,0,32.5,14.6,32.5,32.5V464.4z"/>
		<path id="XMLID_18_" fill="#666766" d="M358.1,287.7l-0.4-0.2c-11.5-4.6-24.5-9.8-39.3-18.1c7.1-9.4,13-20.5,16.7-32.5
			c2.3-2.5,3.7-5.9,4.1-10c1-2.1,1.7-4.3,2.7-7l0.3-1.2c0.1-0.3,0.2-0.9,0.6-2l0.1-0.2c2.4-7.7,6.3-20.2-1.8-27.4
			c1.6-12.9,2.6-28.7-0.7-38.5c-4.1-14-17.3-25.9-37.1-33.5c-16-6-34.6-8.6-48.6-6.6c-13.4,1.9-19.4,7.4-22,12.6
			c-15.7,6.1-25.4,17.8-28.2,34.1c-1.8,10.6-0.6,21.9,1.3,32.7c-0.2,0.1-0.3,0.3-0.5,0.5l-0.8,0.8c-7.3,8.1-3.2,19.6-0.7,26.5
			l0.1,0.3c0.2,0.4,0.3,0.8,0.4,1c0.7,2.8,1.7,5.1,2.5,7.1c0.3,5.8,2.5,9.3,4.7,11.4c3.7,12.1,9.6,23.1,16.8,32.4
			c-15.6,8.5-29.2,13.6-40.3,17.7c-17.2,6.5-32.1,12.1-42.4,25.4c-10.4,13.5-14.8,33.3-14.8,66.2v10.2h285.1v-10.2
			c0-32-4.5-51.5-15.1-65.2C390.5,300.7,375.5,294.7,358.1,287.7z M222.8,232.1l-0.7-2.3l-2-1.3c-0.4-0.2-1-1.5-1-3.8v-1.2l-0.4-1.1
			c-0.1-0.2-0.2-0.4-0.3-0.6l-0.1-0.3c-0.7-1.6-1.5-3.5-2-5.6l0-0.1c-0.2-0.8-0.5-1.5-0.8-2.4c-1.4-3.9-3.9-11.1-1.8-13.6l0,0
			c0.3-0.3,0.6-0.4,0.8-0.5l5.3-1.7l-1-5.4c-2.1-11-3.7-22.5-2-32.6c2.2-12.8,9.6-21.1,22.7-25.3l3.2-1.1l0.9-3.2
			c1.2-4.5,8.6-6.2,12.9-6.8c12-1.7,28.3,0.6,42.4,5.9c16.1,6.2,26.7,15.2,29.6,25.4l0.1,0.3c2.2,6.4,2,20.2-0.4,36.8l-0.7,4.9
			l4.6,1.8c0.1,0.1,0.3,0.1,0.4,0.2l0.1,0.1c2.4,1.7-0.5,11-1.6,14.6c-0.4,1.2-0.7,2-0.8,2.7L330,216c-1,2.8-1.6,4.9-2.5,6.5
			l-0.7,1.3l-0.1,1.4c-0.1,2.3-0.7,3.3-0.9,3.5l-1.7,1.3l-0.6,2c-6.6,23.3-23,43.6-39.1,50.3c-3.5,1.2-7.1,1.8-10.5,1.8
			c-4.4,0-8.6-0.9-12.3-2.2C245.4,274.8,229.5,255.2,222.8,232.1z M143.3,377c0.2-28.5,3.9-45.4,12.2-56.3
			c8.1-10.5,20.8-15.3,36.8-21.3c11.8-4.4,26.4-9.9,43.4-19.3c5.6,5.2,13.4,10.9,22.9,14c5,2,10.1,3,15.1,3c4.3,0,8.6-0.9,13-2.4
			c8.3-2.5,16.5-7.4,24.6-14.6c15.9,8.9,29.6,14.4,41.7,19.3l0.4,0.2c17,6.8,29.3,11.7,37.5,22.3l0,0c8.5,11,12.2,27.6,12.4,55.3
			H143.3z"/>
	</g>
</g>
</svg>
