<?xml version="1.0" encoding="utf-8"?>
<!-- Generator: Adobe Illustrator 19.0.0, SVG Export Plug-In . SVG Version: 6.00 Build 0)  -->
<svg version="1.1" id="Layer_1" xmlns="http://www.w3.org/2000/svg" xmlns:xlink="http://www.w3.org/1999/xlink" x="0px" y="0px"
	 width="512px" height="512px" viewBox="0 0 512 512" enable-background="new 0 0 512 512" xml:space="preserve">
<path id="XMLID_3_" fill="#FFFFFF" d="M512,256c0,141.4-114.6,256-256,256S0,397.4,0,256S114.6,0,256,0S512,114.6,512,256z"/>
<g id="XMLID_6_">
	<path id="XMLID_23_" fill="#547DBF" d="M356,255.9L356,255.9c-0.1-26.7-10.5-51.7-29.3-70.5c-18.8-18.8-43.8-29.2-70.5-29.3
		c-0.3,0-0.5-0.1-0.8-0.1s-0.6,0-0.8,0.1c-26.2,0.3-50.9,10.7-69.4,29.3c-18.8,18.8-29.2,43.8-29.3,70.4v0.1l0,0c0,0,0,0,0,0.1
		c0,0.1,0,0.1,0,0.1c0,26.7,10.4,51.8,29.3,70.7s44,29.3,70.7,29.3s51.8-10.4,70.7-29.3c18.9-18.9,29.3-44,29.3-70.7
		C356,256,356,255.9,356,255.9L356,255.9L356,255.9z M318.4,318.5c-15.4,15.4-35.5,24.4-57,25.7v-7.3c0-3.2-2.6-5.8-5.8-5.8
		c-3.2,0-5.8,2.6-5.8,5.8v7.2c-21.2-1.5-40.9-10.5-56.1-25.7c-15.3-15.3-24.3-35.3-25.7-56.8h6.7c3.2,0,5.8-2.6,5.8-5.8l0,0
		c0-3.2-2.6-5.8-5.8-5.8h-6.8c1.5-21.3,10.4-41.1,25.7-56.4c15.2-15.2,34.9-24.1,56.1-25.7v5.6c0,3.2,2.6,5.8,5.8,5.8
		c3.2,0,5.8-2.6,5.8-5.8v-5.7c21.6,1.3,41.7,10.3,57,25.7c15.2,15.2,24.2,35,25.7,56.4h-7.2c-3.2,0-5.8,2.6-5.8,5.8l0,0
		c0,3.2,2.6,5.8,5.8,5.8h7.2C342.7,283.2,333.8,303.1,318.4,318.5z"/>
	<path id="XMLID_26_" fill="#547DBF" d="M201,311.2l66.6-43.4l43.4-67l-67,43.4L201,311.2z M256,246.8c5.1,0,9.3,4.1,9.3,9.3
		c0,5.1-4.1,9.3-9.3,9.3s-9.3-4.1-9.3-9.3C246.7,250.9,250.9,246.8,256,246.8z"/>
</g>
</svg>
