<?xml version="1.0" encoding="utf-8"?>
<!-- Generator: Adobe Illustrator 19.0.0, SVG Export Plug-In . SVG Version: 6.00 Build 0)  -->
<svg version="1.1" xmlns="http://www.w3.org/2000/svg" xmlns:xlink="http://www.w3.org/1999/xlink" x="0px" y="0px" width="512px"
	 height="512px" viewBox="0 0 512 512" enable-background="new 0 0 512 512" xml:space="preserve">
<g id="Layer_1">
	<g id="XMLID_5_">
		<path id="XMLID_11_" fill="#666766" d="M452.7,293.6c-12.2-36.7-38.7-75.1-78.5-114.1c-21.2-20.8-40.4-35.9-49.9-43.1
			c6.1-8.3,17.5-24,28.8-39.9c34.8-49.1,34.4-52.3,34.1-55.9c-1.2-11.4-21.9-40.1-63.6-40.4c-0.2,0-0.4,0-0.6,0
			c-20.8,0-32.9,7.7-42.6,13.8c-7.4,4.7-13.2,8.4-21.8,8.7c-8.6-0.3-14.5-4-21.8-8.7C226.9,7.9,214.9,0.2,194,0.2
			c-0.2,0-0.4,0-0.6,0c-41.7,0.3-62.4,29-63.6,40.4c-0.4,3.7-0.7,6.9,34.1,55.9c11.3,15.9,22.7,31.6,28.8,39.9
			c-9.5,7.2-28.7,22.3-49.9,43.1c-39.9,39-66.3,77.5-78.5,114.1C34.8,382,31.4,426.5,51.2,463.8c20.3,38.2,58.1,48.3,75.3,48.3
			c6.8,0,44.9,0,84.2,0v0c0,0,20.5,0,47.8,0c27.2,0,47.8,0,47.8,0v0c39.3,0,77.4,0,84.2,0c17.2,0,55-10.1,75.3-48.3
			C485.6,426.5,482.1,382,452.7,293.6z M145.3,41.2c2.5-5.7,16.5-25.6,48.2-25.8c0.2,0,0.3,0,0.5,0c16.4,0,25.2,5.6,34.4,11.5
			c8.3,5.3,17,10.8,30,11.1l0,0c0,0,0,0,0,0c0,0,0,0,0,0l0,0c13-0.3,21.6-5.8,30-11.1c9.4-6,18.2-11.6,34.9-11.5
			c31.8,0.2,45.7,20.1,48.2,25.8c-4.7,9.6-33.6,50.8-61.3,88.5H206.7C178.9,92,150,50.8,145.3,41.2z M452.3,456.7
			c-17.5,33-50.6,40.2-61.8,40.2c-9.7,0-82.1,0-132,0.1c-49.9,0-122.3-0.1-132-0.1c-11.3,0-44.3-7.2-61.8-40.2
			c-17.5-33.1-13.9-74.5,14.1-158.3c26-77.9,117.6-145.9,128-153.4h103.5c10.4,7.5,102,75.4,128,153.4
			C466.2,382.2,469.9,423.6,452.3,456.7z"/>
		<path id="XMLID_17_" fill="#666766" d="M265,324.3c-9.5-4-16-7.7-19.3-11.2c-3.4-3.5-5-8.1-5-13.9c0-6.3,1.6-11.3,4.8-15
			c3.2-3.7,8.3-5.6,15.4-5.6c6.7,0,12,2.2,15.7,6.6c3.7,4.4,5.6,10.7,5.6,19h32.3l0.2-0.6c0.2-14-3.5-25.3-11.2-34
			c-7.7-8.7-18.4-14-31.9-15.9v-24.6h-18v24.2c-14.1,1.4-25.3,6.2-33.5,14.3c-8.2,8.1-12.3,18.6-12.3,31.3
			c0,13.8,4.1,24.5,12.3,32.2c8.2,7.6,20.9,14.3,37.9,20.1c9.1,3.5,15.4,7.1,18.9,10.8c3.5,3.7,5.3,8.7,5.3,14.9
			c0,6.3-1.9,11.2-5.6,14.8c-3.7,3.6-9.3,5.4-16.7,5.4c-7.6,0-13.7-2.1-18.4-6.2c-4.7-4.1-7.1-11-7.1-20.7h-32.2l-0.3,0.7
			c-0.3,16.2,4.2,28.4,13.5,36.8c9.3,8.3,21.2,13.2,35.7,14.4v22.3h18v-22.3c14.2-1.4,25.4-6.1,33.6-14c8.2-7.9,12.3-18.4,12.3-31.5
			c0-13.7-4.2-24.6-12.5-32.5C294.3,336.4,281.8,329.7,265,324.3z"/>
	</g>
</g>
<g id="Layer_2">
</g>
</svg>
