<?xml version="1.0" encoding="utf-8"?>
<!-- Generator: Adobe Illustrator 19.0.0, SVG Export Plug-In . SVG Version: 6.00 Build 0)  -->
<svg version="1.1" xmlns="http://www.w3.org/2000/svg" xmlns:xlink="http://www.w3.org/1999/xlink" x="0px" y="0px" width="512px"
	 height="512px" viewBox="0 0 512 512" enable-background="new 0 0 512 512" xml:space="preserve">
<g id="Layer_2">
	<path id="XMLID_2_" fill="#F8E3E3" d="M512,256c0,141.4-114.6,256-256,256S0,397.4,0,256S114.6,0,256,0S512,114.6,512,256z"/>
</g>
<g id="Layer_3">
	<path id="XMLID_8_" fill="#FFFFFF" d="M170.1,279.2v-136c0-8,6.5-14.5,14.5-14.5h128.8c8,0,14.5,6.5,14.5,14.5v261.5
		c0,8-6.5,14.5-14.5,14.5H184.6c-8,0-14.5-6.5-14.5-14.5v-84.8"/>
	<path id="XMLID_5_" fill="#F58C8C" d="M313.4,419.2H184.6c-8,0-14.5-6.5-14.5-14.5v-31.6l157.8,0.1v31.4
		C327.9,412.7,321.4,419.2,313.4,419.2z"/>
	<path id="XMLID_3_" fill="#F48788" d="M170.1,158.7v-15.4c0-8,6.5-14.5,14.5-14.5h128.8c8,0,14.5,6.5,14.5,14.5v15.1L170.1,158.7z"
		/>
	<path id="XMLID_9_" fill="#FCF1E1" d="M170.3,401.6c-47.7,2.5-49.7-45.1-49.1-60.8c0.1-3.1,1.2-6.1,3.2-8.5l39-48.9
		c3.2-4,8.2-6.2,13.2-5.4c2.3,0.3,4.8,1.3,7.3,3.3c5,4.1,5.5,9.4,4.9,13.1c-0.3,2.6-1.4,5-3,7l-15.6,19.8"/>
	<path id="XMLID_13_" fill="none" stroke="#541413" stroke-width="3.5" stroke-miterlimit="10" d="M170.1,279.2v-136
		c0-8,6.5-14.5,14.5-14.5h128.8c8,0,14.5,6.5,14.5,14.5v261.5c0,8-6.5,14.5-14.5,14.5H184.6c-8,0-14.5-6.5-14.5-14.5v-84.8"/>
	
		<line id="XMLID_70_" fill="none" stroke="#541413" stroke-width="3.5" stroke-miterlimit="10" x1="169.7" y1="158.7" x2="326.8" y2="158.7"/>
	<path id="XMLID_14_" fill="none" stroke="#541413" stroke-width="3.5" stroke-miterlimit="10" d="M328.2,373.3H171.1"/>
	<path id="XMLID_10_" fill="#FEF3F3" stroke="#541413" stroke-width="3" stroke-miterlimit="10" d="M261.9,396.2
		c0,6.8-5.5,12.2-12.2,12.2s-12.2-5.5-12.2-12.2s5.5-12.2,12.2-12.2S261.9,389.4,261.9,396.2z"/>
	<path id="XMLID_15_" fill="none" stroke="#541413" stroke-width="3.5" stroke-miterlimit="10" d="M245,144.5h37.1"/>
	<path id="XMLID_16_" fill="#FEF3F3" stroke="#541413" stroke-width="3" stroke-miterlimit="10" d="M237.6,144.5
		c0,2.4-1.9,4.3-4.3,4.3s-4.3-1.9-4.3-4.3c0-2.4,1.9-4.3,4.3-4.3S237.6,142.1,237.6,144.5z"/>
	<path id="XMLID_12_" fill="none" stroke="#541413" stroke-width="3.5" stroke-miterlimit="10" d="M170.3,401.6
		c-47.7,2.5-49.7-45.1-49.1-60.8c0.1-3.1,1.2-6.1,3.2-8.5l39-48.9c3.2-4,8.2-6.2,13.2-5.4c2.3,0.3,4.8,1.3,7.3,3.3
		c5,4.1,5.5,9.4,4.9,13.1c-0.3,2.6-1.4,5-3,7l-15.6,19.8"/>
	<g id="XMLID_58_">
		<path id="XMLID_11_" fill="none" stroke="#541413" stroke-width="3.5" stroke-miterlimit="10" d="M315.7,388.4L291,313
			c-2-6.1,1.3-12.7,7.4-14.7h0c6.1-2,12.7,1.3,14.7,7.4l20.1,61.5 M342.3,327.1c-5.2-15.3-24.7-6.9-20.9,3.7 M378.4,370.1
			l-12.9-39.5c-4.7-16.3-27-13.6-23.1-3l12.5,38 M404.5,388.7l-18-55.1c-4.8-16.3-24.2-12.9-21.4-4.4 M316.7,389.5
			c-0.4-0.7-9.7-8.6-20.7-6.2c-13.7,3-15.6,23.1-6.1,26.1c17.5,5.5,56.5,46.7,90.7,23.9c28.1-18.8,25.3-39.7,23.4-46.5"/>
		<path id="XMLID_4_" fill="#FCF1E1" d="M379.9,432.2c-24.4,16.3-51.5-1.1-71.3-13.9c-7.2-4.6-13.4-8.6-18.2-10.2
			c-3.2-1-5.2-4.8-5-9.5c0.4-8.1,5.8-12.8,10.9-14c9.8-2.1,18.5,4.6,19.4,5.7c0,0,0-0.1-0.1-0.1l2.3-1.4c-0.1-0.2-0.5-0.6-1-1
			l-24.6-75.1c-1.8-5.4,1.2-11.2,6.6-13c5.4-1.8,11.2,1.2,13,6.6l20.1,61.5l2.6-0.8l-11.9-36.5l0.1,0c-0.9-2.3-0.4-4.7,1.3-6.7
			c2.3-2.7,6.1-4,9.6-3.4c2.3,0.4,5.4,2,7.2,6.7c0.1,0.4,0.2,0.7,0.3,1.1l12.5,38l2.6-0.8l-12.5-38c-0.1-0.1-0.1-0.3-0.1-0.4l0.1,0
			c-0.1-0.2-0.1-0.3-0.2-0.5c-0.3-1.4,0-2.5,0.9-3.5c1.7-2,5.6-2.8,9.3-2c2.4,0.5,8.4,2.6,10.6,10.3l12.9,39.5l2.6-0.8l-12.9-39.4
			c-0.1-0.5-0.3-1-0.5-1.5l0,0c-0.4-1.3-0.2-2.4,0.7-3.3c1.6-1.7,5-2.4,8.3-1.7c4.7,1.1,8.3,4.8,9.9,10.3l17.9,54.7
			C404.9,397.1,405.1,415.3,379.9,432.2z"/>
	</g>
	<g id="XMLID_34_">
		<path id="XMLID_7_" fill="#FCD93D" d="M284.6,267.6L284.6,267.6c-2.2-1.5-3.5-4-3.5-6.6v-24.6c0-15.4-11.5-28-26.4-29.8V204
			c0-2.2-1.8-4-4-4l0,0c-2.2,0-4,1.8-4,4v2.7c-14.5,2.1-25.6,14.6-25.6,29.7V261c0,2.6-1.3,5.1-3.5,6.6l0,0
			c-3.5,2.4-5.5,6.3-5.5,10.5v5.1h78.1v-5.1C290.1,273.9,288.1,270,284.6,267.6z"/>
		<path id="XMLID_53_" fill="#FFFFFF" d="M228.2,235.1l-3-0.2c0.1-1.2,0.2-2.4,0.4-3.5l2.9,0.6C228.4,233,228.2,234,228.2,235.1z
			 M229.3,229.2l-2.8-0.9c1.2-3.6,3.2-6.9,5.8-9.6c4.3-4.4,10-7.2,16.1-7.8l0.3,3c-5.4,0.5-10.5,2.9-14.2,6.9
			C232.1,223.2,230.3,226.1,229.3,229.2z"/>
		<path id="XMLID_52_" fill="#FCD93D" d="M233,283.2c1.5,8.4,8.9,14.8,17.7,14.8s16.2-6.4,17.7-14.8H233z"/>
		<path id="XMLID_51_" fill="#F4A91D" d="M268.4,283.2H233c0.3,1.4,0.7,2.7,1.2,4h33C267.8,286,268.2,284.6,268.4,283.2z"/>
		<rect id="XMLID_48_" x="212.1" y="278.1" fill="#F4A91D" width="78.1" height="5.1"/>
		<path id="XMLID_92_" fill="#541413" d="M285.5,266.4L285.5,266.4c-1.7-1.2-2.8-3.2-2.8-5.4v-24.6c0-7.6-2.8-15-7.7-20.7
			c-3.2-3.7-7.3-6.6-11.8-8.4c-0.2-0.1-0.4-0.2-0.6-0.3c-0.5-0.2-0.9-0.3-1.4-0.5c-0.3-0.1-0.6-0.2-0.9-0.3
			c-0.5-0.1-0.9-0.3-1.4-0.4c-0.3-0.1-0.7-0.2-1-0.2c-0.3-0.1-0.5-0.1-0.8-0.2V204c0-3-2.5-5.5-5.5-5.5c-0.1,0-0.3,0-0.4,0
			c-0.1,0-0.3,0-0.4,0c-3,0-5.5,2.5-5.5,5.5v1.5c-0.3,0.1-0.5,0.1-0.8,0.2c-0.3,0.1-0.7,0.1-1,0.2c-0.5,0.1-0.9,0.2-1.4,0.4
			c-0.3,0.1-0.6,0.2-0.9,0.3c-0.5,0.2-0.9,0.3-1.4,0.5c-0.2,0.1-0.4,0.2-0.6,0.3c-4.5,1.9-8.5,4.7-11.8,8.4
			c-5,5.7-7.7,13.1-7.7,20.7V261c0,2.1-1.1,4.1-2.8,5.4c-3.9,2.7-6.2,7.1-6.2,11.8v6.6h21.2c2.1,8.7,9.9,14.8,18.9,14.8
			c9,0,16.8-6.2,18.9-14.8h22v-6.6C291.6,273.5,289.3,269.1,285.5,266.4z M250.7,296.5c-7.4,0-13.8-4.9-15.8-11.8h31.7
			C264.5,291.7,258.1,296.5,250.7,296.5z M288.6,281.7h-18.4h-39h-17.6v-3.6c0-3.7,1.8-7.2,4.9-9.3c2.6-1.8,4.1-4.7,4.1-7.8v-24.6
			c0-8.4,3.7-16.1,9.7-21.3c0.5-0.4,0.9-0.8,1.4-1.2c0.1-0.1,0.2-0.2,0.3-0.2c0.5-0.4,1-0.7,1.5-1.1c0.1-0.1,0.2-0.1,0.3-0.2
			c0.5-0.4,1.1-0.7,1.7-1c0,0,0.1,0,0.1-0.1c3.1-1.7,6.6-2.8,10.2-3.3l1.3-0.2v-4c0-1.2,0.9-2.3,2.1-2.5c1.2,0.2,2.1,1.2,2.1,2.5v4
			l1.3,0.2c3.6,0.4,7.1,1.5,10.2,3.2c0,0,0.1,0,0.1,0.1c0.6,0.3,1.1,0.7,1.7,1c0.1,0.1,0.2,0.1,0.3,0.2c0.5,0.3,1,0.7,1.5,1.1
			c0.1,0.1,0.2,0.2,0.3,0.2c0.5,0.4,1,0.8,1.4,1.2c5.9,5.3,9.7,13,9.7,21.3v19.8h-0.1v4.8c0,3.1,1.5,6.1,4.1,7.8
			c3.1,2.1,4.9,5.6,4.9,9.3V281.7z"/>
		<path id="XMLID_6_" fill="#85C558" d="M279.9,218.2c8.8,0,16,7.2,16,16s-7.2,16-16,16s-16-7.2-16-16S271.1,218.2,279.9,218.2z"/>
		<path id="XMLID_41_" fill="#541413" d="M279.9,216.7c-9.7,0-17.5,7.9-17.5,17.5c0,9.7,7.9,17.5,17.5,17.5
			c9.7,0,17.5-7.9,17.5-17.5C297.4,224.5,289.6,216.7,279.9,216.7z M279.9,248.7c-8,0-14.5-6.5-14.5-14.5c0-8,6.5-14.5,14.5-14.5
			s14.5,6.5,14.5,14.5C294.4,242.2,287.9,248.7,279.9,248.7z"/>
		<polygon id="XMLID_36_" fill="#FFFFFF" points="276.7,240.6 271.7,235.6 273.5,233.8 276.7,237.1 286.4,227.5 288.1,229.2 		"/>
	</g>
	<g id="XMLID_76_">
		<path id="XMLID_18_" fill="none" stroke="#F48788" stroke-width="3" stroke-miterlimit="10" d="M414.1,147.8l-18.4-7.4"/>
		<path id="XMLID_17_" fill="none" stroke="#F48788" stroke-width="3" stroke-miterlimit="10" d="M408.9,134.6l-8,19"/>
	</g>
	<g id="XMLID_79_">
		<path id="XMLID_24_" fill="none" stroke="#F48788" stroke-width="3" stroke-miterlimit="10" d="M114.4,108.7l18.4,7.4"/>
		<path id="XMLID_23_" fill="none" stroke="#F48788" stroke-width="3" stroke-miterlimit="10" d="M119.6,121.9l8-19"/>
	</g>
	<path id="XMLID_21_" fill="none" stroke="#F4A91D" stroke-width="3" stroke-miterlimit="10" d="M382.3,255c0,4.6-3.6,8.2-8,8.2
		s-8-3.7-8-8.2c0-4.6,3.6-8.2,8-8.2S382.3,250.4,382.3,255z"/>
	<path id="XMLID_25_" fill="none" stroke="#F4A91D" stroke-width="3" stroke-miterlimit="10" d="M138,222.2c0,4.6-3.6,8.2-8,8.2
		c-4.4,0-8-3.7-8-8.2s3.6-8.2,8-8.2C134.4,214,138,217.7,138,222.2z"/>
	<path id="XMLID_22_" fill="none" stroke="#F4A91D" stroke-width="3" stroke-miterlimit="10" d="M275,63.8c0,4.6-3.6,8.2-8,8.2
		s-8-3.7-8-8.2s3.6-8.2,8-8.2S275,59.2,275,63.8z"/>
	<g id="XMLID_82_">
		<path id="XMLID_27_" fill="none" stroke="#F48788" stroke-width="3" stroke-miterlimit="10" d="M78.8,319.1l-18.4-7.4"/>
		<path id="XMLID_26_" fill="none" stroke="#F48788" stroke-width="3" stroke-miterlimit="10" d="M65.6,324.9l8-19"/>
	</g>
	<g id="XMLID_88_">
		<path id="XMLID_20_" fill="none" stroke="#F48788" stroke-width="3" stroke-miterlimit="10" d="M465.8,259.1l-18.4-7.4"/>
		<path id="XMLID_19_" fill="none" stroke="#F48788" stroke-width="3" stroke-miterlimit="10" d="M452.6,264.9l8-19"/>
	</g>
</g>
</svg>
