<?xml version="1.0" encoding="utf-8"?>
<!-- Generator: Adobe Illustrator 19.0.0, SVG Export Plug-In . SVG Version: 6.00 Build 0)  -->
<svg version="1.1" id="Layer_1" xmlns="http://www.w3.org/2000/svg" xmlns:xlink="http://www.w3.org/1999/xlink" x="0px" y="0px"
	 width="496.2px" height="496.2px" viewBox="-351 65.8 496.2 496.2" style="enable-background:new -351 65.8 496.2 496.2;"
	 xml:space="preserve">
<style type="text/css">
	.st0{fill:#FFFFFF;}
</style>
<g>
	<path class="st0" d="M72.4,138.5C25.6,91.6-36.7,65.8-103,65.8c-66.2,0-128.5,25.8-175.4,72.6c-46.8,46.8-72.6,109.1-72.6,175.4
		c0,66.2,25.8,128.5,72.6,175.4c46.8,46.8,109.1,72.6,175.4,72.6c66.2,0,128.5-25.8,175.4-72.6c46.8-46.8,72.6-109.1,72.6-175.4
		C145,247.6,119.2,185.3,72.4,138.5z M60.4,477.2c-43.6,43.6-101.6,67.7-163.3,67.7s-119.7-24-163.3-67.7
		c-43.6-43.6-67.7-101.6-67.7-163.3s24-119.7,67.7-163.3c43.6-43.6,101.6-67.7,163.3-67.7s119.7,24,163.3,67.7
		c43.6,43.6,67.7,101.6,67.7,163.3C128,375.5,104,433.5,60.4,477.2z"/>
	<path class="st0" d="M-49.8,409.7c-21.5,10.2-45.8,20.9-50.6,21.8c-0.1-0.1-0.3-0.3-0.6-0.6c-0.6-0.9-1-2-1-3.5
		c0-12.1,9.2-49.1,27.2-109.8c15.2-51,17-61.6,17-65.1c0-5.4-2.1-10-6-13.2c-3.7-3.1-8.9-4.6-15.5-4.6c-10.9,0-23.5,4.1-38.5,12.6
		c-14.6,8.2-30.9,22.2-48.4,41.5c-1.4,1.5-1.5,3.8-0.3,5.4c1.2,1.7,3.3,2.3,5.2,1.5c6.1-2.5,37-15.2,41.5-18
		c3.7-2.3,6.9-3.5,9.5-3.5c0.1,0,0.2,0,0.2,0c0,0.2,0.1,0.4,0.1,0.8c0,2.7-0.5,5.8-1.6,9.3c-26.3,85.3-39.1,137.5-39.1,159.8
		c0,7.9,2.2,14.2,6.5,18.8c4.4,4.7,10.3,7.1,17.6,7.1c7.8,0,17.2-3.2,28.9-9.9c11.3-6.5,28.5-20.7,52.7-43.4
		c1.6-1.5,1.8-3.9,0.6-5.6C-45.5,409.4-47.8,408.8-49.8,409.7z M-61.5,157.5c-8.2,0-15.3,3.2-21.1,9.6c-5.8,6.3-8.7,13.9-8.7,22.8
		c0,7,2.2,12.8,6.4,17.3c4.3,4.5,9.7,6.8,16.1,6.8c7.8,0,14.9-3.4,21-10.1c6-6.6,9-14.3,9-23c0-6.7-2.2-12.3-6.4-16.7
		C-49.5,159.8-55,157.5-61.5,157.5z"/>
</g>
</svg>
