<?xml version="1.0" encoding="utf-8"?>
<!-- Generator: Adobe Illustrator 19.0.0, SVG Export Plug-In . SVG Version: 6.00 Build 0)  -->
<svg version="1.1" id="Layer_1" xmlns="http://www.w3.org/2000/svg" xmlns:xlink="http://www.w3.org/1999/xlink" x="0px" y="0px"
	 width="512px" height="512px" viewBox="0 0 512 512" enable-background="new 0 0 512 512" xml:space="preserve">
<g id="XMLID_6_">
	<path id="XMLID_38_" fill="#666766" d="M452.8,264H128v248h324.8v-16.8H512L452.8,264z M436.8,496H144V280h292.8V496z M452.8,328.8
		L492,479.2h-39.2V328.8z"/>
	<path id="XMLID_44_" fill="#666766" d="M216.8,201.6c-11.2,3.2-19.2,13.6-19.2,25.6c0,15.2,12,27.2,27.2,27.2
		c12,0,22.4-8,25.6-19.2h86.8v-16h-86.8c-2.4-8-9.6-15.2-17.6-17.6V82.8h-16V201.6z M224.8,216c6.4,0,11.2,4.8,11.2,11.2
		c0,6.4-5.6,11.2-11.2,11.2c-6.4,0-11.2-4.8-11.2-11.2C213.6,220.8,218.4,216,224.8,216z"/>
	<path id="XMLID_2_" fill="#666766" d="M232.8,58.2h-16V36.6h16V58.2z"/>
	<path id="XMLID_3_" fill="#666766" d="M395.4,235.2v-16H417v16H395.4z"/>
	<path id="XMLID_4_" fill="#666766" d="M41.4,235.2v-16H63v16H41.4z"/>
	<path id="XMLID_7_" fill="#666766" d="M192,378.4h-17.6v-17.6H192V378.4z M192,400.8h-17.6v17.6H192V400.8z M192,440.8h-17.6v17.6
		H192V440.8z"/>
	<path id="XMLID_5_" fill="#666766" d="M296,338.4h-17.6v-17.6H296V338.4z M330.4,320.8h-17.6v17.6h17.6V320.8z M364.8,320.8h-17.6
		v17.6h17.6V320.8z M400,320.8h-17.6v17.6H400V320.8z M226.4,360.8h-17.6v17.6h17.6V360.8z M260.8,360.8h-17.6v17.6h17.6V360.8z
		 M296,360.8h-17.6v17.6H296V360.8z M330.4,360.8h-17.6v17.6h17.6V360.8z M364.8,360.8h-17.6v17.6h17.6V360.8z M400,360.8h-17.6
		v17.6H400V360.8z M226.4,400.8h-17.6v17.6h17.6V400.8z M260.8,400.8h-17.6v17.6h17.6V400.8z M296,400.8h-17.6v17.6H296V400.8z
		 M330.4,400.8h-17.6v17.6h17.6V400.8z M364.8,400.8h-17.6v17.6h17.6V400.8z M400,400.8h-17.6v17.6H400V400.8z M226.4,440.8h-17.6
		v17.6h17.6V440.8z M260.8,440.8h-17.6v17.6h17.6V440.8z M296,440.8h-17.6v17.6H296V440.8z M330.4,440.8h-17.6v17.6h17.6V440.8z
		 M364.8,440.8h-17.6v17.6h17.6V440.8z"/>
	<path id="XMLID_1_" fill="#666766" d="M113.8,409.2l-8,12.7c-31.9-20.3-58.6-48.4-77.1-81.3c-19.1-34-29.2-72.7-29.2-111.9
		c0-61.1,23.8-118.5,67-161.7C109.7,23.8,167.1,0,228.2,0c61.1,0,118.5,23.8,161.7,67c43.2,43.2,67,100.6,67,161.7
		c0,6.7-0.3,13.4-0.9,20l-14.9-1.3c0.5-6.2,0.8-12.5,0.8-18.7c0-57.1-22.2-110.7-62.6-151.1C338.9,37.2,285.2,15,228.2,15
		c-57.1,0-110.7,22.2-151.1,62.6c-40.4,40.4-62.6,94-62.6,151.1C14.5,302.2,51.6,369.7,113.8,409.2z"/>
</g>
</svg>
