<?xml version="1.0" encoding="utf-8"?>
<!-- Generator: Adobe Illustrator 19.0.0, SVG Export Plug-In . SVG Version: 6.00 Build 0)  -->
<svg version="1.1" xmlns="http://www.w3.org/2000/svg" xmlns:xlink="http://www.w3.org/1999/xlink" x="0px" y="0px" width="512px"
	 height="512px" viewBox="0 0 512 512" enable-background="new 0 0 512 512" xml:space="preserve">
<g id="Layer_1">
	<path id="XMLID_6_" fill="#D92428" d="M256.3,510.8c-68.4,0-132.7-26.5-181.1-74.7c-48.4-48.2-75-112.3-75-180.4
		c0-68.2,26.7-132.3,75-180.4C123.6,27,187.9,0.5,256.3,0.5c68.4,0,132.7,26.5,181.1,74.7c48.4,48.2,75,112.3,75,180.4
		c0,68.2-26.7,132.3-75,180.4C389.1,484.3,324.8,510.8,256.3,510.8z M256.3,25.5c-61.8,0-119.8,23.9-163.5,67.4
		c-43.6,43.5-67.7,101.3-67.7,162.7s24,119.3,67.7,162.7c43.7,43.5,101.7,67.4,163.5,67.4s119.8-23.9,163.5-67.4
		c43.6-43.5,67.7-101.3,67.7-162.7s-24-119.3-67.7-162.7C376.1,49.4,318.1,25.5,256.3,25.5z"/>
</g>
<g id="Layer_2">
</g>
</svg>
